<svg width="316" height="316" viewBox="0 0 316 316" fill="none" xmlns="http://www.w3.org/2000/svg">
<path d="M40.3723 256.105L40.4987 258.406V258.773L40.7894 264.163L40.84 265.187L41.0991 269.934L41.1876 271.615L41.4088 275.697L41.5289 278.03L41.7185 281.461L41.8765 284.451L42.0282 287.231C42.0282 287.231 42.0282 287.863 42.0977 288.565" stroke="#263238" stroke-linecap="round" stroke-linejoin="round"/>
<path d="M42.1797 289.652C42.2113 290.322 42.2429 290.872 42.2429 290.872V291.396H71.89L71.9532 290.24L72.0986 287.516L72.2629 284.47L72.4398 281.107L72.5726 278.706L72.7874 274.68L72.8822 272.942L72.9897 270.989" stroke="#263238" stroke-linecap="round" stroke-linejoin="round"/>
<path d="M73.0845 269.731C73.1224 268.916 73.1603 268.265 73.1603 268.265L73.2172 267.178L73.5016 261.844V261.414C73.5016 261.414 73.5774 259.998 73.6533 258.633" stroke="#263238" stroke-linecap="round" stroke-linejoin="round"/>
<path d="M73.7356 257.471C73.7798 256.693 73.8114 256.105 73.8114 256.105" stroke="#263238" stroke-linecap="round" stroke-linejoin="round"/>
<path d="M42.7675 291.396L42.2429 290.872" stroke="#263238" stroke-linecap="round" stroke-linejoin="round"/>
<path d="M48.8409 291.396L46.3951 288.951L43.3615 285.917L41.8953 284.451" stroke="#263238" stroke-linecap="round" stroke-linejoin="round"/>
<path d="M54.921 291.396L52.4751 288.951L49.4352 285.911L46.4016 282.883L43.3617 279.843L41.5479 278.036" stroke="#263238" stroke-linecap="round" stroke-linejoin="round"/>
<path d="M60.9881 291.396L58.5423 288.951L55.5087 285.917L54.7061 285.114" stroke="#263238" stroke-linecap="round" stroke-linejoin="round"/>
<path d="M53.8275 284.242L52.456 282.877L49.4224 279.843L46.3952 276.816L43.3552 273.776L42.5779 272.999" stroke="#263238" stroke-linecap="round" stroke-linejoin="round"/>
<path d="M67.0679 291.396L64.6221 288.951L61.5822 285.911L58.5486 282.883L55.5086 279.843L52.475 276.81L49.4351 273.77L46.3952 270.73L43.3616 267.69L40.8589 265.194" stroke="#263238" stroke-linecap="round" stroke-linejoin="round"/>
<path d="M71.9785 290.24L70.7145 288.976L67.6809 285.942L66.7771 285.032" stroke="#263238" stroke-linecap="round" stroke-linejoin="round"/>
<path d="M65.5257 283.768L64.6157 282.852L61.5821 279.818L58.5421 276.816L55.5085 273.776L52.456 270.73L49.4224 267.69L48.032 266.287" stroke="#263238" stroke-linecap="round" stroke-linejoin="round"/>
<path d="M46.3953 264.656L43.3554 261.648L41.7122 259.999" stroke="#263238" stroke-linecap="round" stroke-linejoin="round"/>
<path d="M43.9241 256.112L46.3952 258.576L49.4351 261.616L52.4687 264.65L55.5086 267.69L58.5486 270.736L61.5822 273.77L64.6221 276.81L67.6557 279.843L70.6956 282.883L72.2882 284.476" stroke="#263238" stroke-linecap="round" stroke-linejoin="round"/>
<path d="M49.9976 256.112L52.475 258.583L55.5086 261.616L58.5485 264.656L61.5821 267.69L64.622 270.736L67.662 273.776L70.6956 276.81L72.5979 278.712" stroke="#263238" stroke-linecap="round" stroke-linejoin="round"/>
<path d="M56.071 256.112L58.5422 258.576L61.5821 261.616L64.622 264.656L67.6556 267.69L70.6955 270.736L72.9075 272.948" stroke="#263238" stroke-linecap="round" stroke-linejoin="round"/>
<path d="M62.1445 256.112L64.622 258.583L67.6556 261.616L70.6955 264.656L73.2172 267.178" stroke="#263238" stroke-linecap="round" stroke-linejoin="round"/>
<path d="M68.2183 256.112L70.6957 258.583L73.5271 261.414" stroke="#263238" stroke-linecap="round" stroke-linejoin="round"/>
<path d="M72.1239 287.522L70.6892 288.95L68.2434 291.396" stroke="#263238" stroke-linecap="round" stroke-linejoin="round"/>
<path d="M72.4652 281.114L70.6956 282.883L67.6557 285.917L64.6221 288.95L62.1763 291.396" stroke="#263238" stroke-linecap="round" stroke-linejoin="round"/>
<path d="M72.8128 274.686L70.6956 276.81L67.6557 279.843L64.6158 282.883L61.5822 285.911L58.5423 288.951L56.0964 291.396" stroke="#263238" stroke-linecap="round" stroke-linejoin="round"/>
<path d="M73.1604 268.265L70.6956 270.73L67.662 273.77L64.6221 276.803L64.186 277.246" stroke="#263238" stroke-linecap="round" stroke-linejoin="round"/>
<path d="M62.644 278.781L61.5822 279.843L58.5486 282.877L55.5087 285.917L52.4561 288.95C52.4561 288.95 51.8241 289.582 51.249 290.157" stroke="#263238" stroke-linecap="round" stroke-linejoin="round"/>
<path d="M73.5018 261.844L70.6957 264.656L67.6558 267.69L64.6222 270.736L61.5823 273.77L58.5423 276.81L55.5087 279.843L52.4688 282.883L49.4352 285.911L46.3953 288.95L43.9495 291.396" stroke="#263238" stroke-linecap="round" stroke-linejoin="round"/>
<path d="M42.0471 287.231L43.3617 285.917L46.4016 282.877L49.4352 279.843L52.4562 276.816L53.3852 275.887" stroke="#263238" stroke-linecap="round" stroke-linejoin="round"/>
<path d="M54.7375 274.541L55.5086 273.764L58.5485 270.73L61.5821 267.69L64.622 264.656L67.6556 261.616L70.6955 258.583L71.9027 257.376" stroke="#263238" stroke-linecap="round" stroke-linejoin="round"/>
<path d="M41.7373 281.467L43.3615 279.843L46.3951 276.81L49.4351 273.77L52.4687 270.736L55.5086 267.69L58.5485 264.656L61.5821 261.616L64.622 258.583L67.0931 256.112" stroke="#263238" stroke-linecap="round" stroke-linejoin="round"/>
<path d="M41.4277 275.697L43.3237 273.763L46.3637 270.724L47.5013 269.592" stroke="#263238" stroke-linecap="round" stroke-linejoin="round"/>
<path d="M48.3669 268.758L49.435 267.69L52.4686 264.65L55.5085 261.616L58.5421 258.576L59.4901 257.635" stroke="#263238" stroke-linecap="round" stroke-linejoin="round"/>
<path d="M41.1179 269.933L43.3615 267.69L46.3951 264.656L49.435 261.648L52.475 258.614L53.9602 257.129" stroke="#263238" stroke-linecap="round" stroke-linejoin="round"/>
<path d="M40.8083 264.17L43.3553 261.616L46.3952 258.576L48.8727 256.112" stroke="#263238" stroke-linecap="round" stroke-linejoin="round"/>
<path d="M42.799 256.105L40.4985 258.406" stroke="#263238" stroke-linecap="round" stroke-linejoin="round"/>
<path d="M49.7573 252.238H71.416" stroke="#263238" stroke-linecap="round" stroke-linejoin="round"/>
<path d="M72.68 252.238H75.0563V256.112H66.6697" stroke="#263238" stroke-linecap="round" stroke-linejoin="round"/>
<path d="M64.5905 256.112H47.4001" stroke="#263238" stroke-linecap="round" stroke-linejoin="round"/>
<path d="M46.6733 256.112H39.1272V254.475" stroke="#263238" stroke-linecap="round" stroke-linejoin="round"/>
<path d="M39.1272 254.146V252.25H47.6718" stroke="#263238" stroke-linecap="round" stroke-linejoin="round"/>
<path d="M62.2014 222.218V248.793" stroke="#263238" stroke-linecap="round" stroke-linejoin="round"/>
<path d="M62.2014 213.572V219.235" stroke="#263238" stroke-linecap="round" stroke-linejoin="round"/>
<path d="M182.869 291.295V199.56H62.2014V210.367" stroke="#263238" stroke-linecap="round" stroke-linejoin="round"/>
<path d="M166.658 204.939H176.315V286.783" stroke="#263238" stroke-linecap="round" stroke-linejoin="round"/>
<path d="M68.7554 248.8V204.939H161.059" stroke="#263238" stroke-linecap="round" stroke-linejoin="round"/>
<path d="M73.3816 194.46H76.4468" stroke="#263238" stroke-linecap="round" stroke-linejoin="round"/>
<path d="M80.8455 194.46H185.631V199.523H59.4397V194.46H71.4287" stroke="#263238" stroke-linecap="round" stroke-linejoin="round"/>
<path d="M210.608 191.957L209.097 201.728" stroke="#263238" stroke-linecap="round" stroke-linejoin="round"/>
<path d="M201.374 151.857H208.661C209.668 151.854 210.663 152.069 211.579 152.488C212.494 152.908 213.307 153.521 213.962 154.285C214.618 155.05 215.099 155.947 215.373 156.916C215.647 157.885 215.707 158.902 215.55 159.896L211.429 186.617" stroke="#263238" stroke-linecap="round" stroke-linejoin="round"/>
<path d="M193.961 151.857H199.289" stroke="#263238" stroke-linecap="round" stroke-linejoin="round"/>
<path d="M163.296 188.488L168.03 157.766C168.28 156.119 169.113 154.617 170.377 153.532C171.641 152.448 173.253 151.853 174.919 151.857H190.169" stroke="#263238" stroke-linecap="round" stroke-linejoin="round"/>
<path d="M158.013 222.761L160.383 207.372" stroke="#263238" stroke-linecap="round" stroke-linejoin="round"/>
<path d="M184.968 242.391H192.217C195.673 242.395 198.995 241.056 201.482 238.656" stroke="#263238" stroke-linecap="round" stroke-linejoin="round"/>
<path d="M145.012 242.391H170.274" stroke="#263238" stroke-linecap="round" stroke-linejoin="round"/>
<path d="M134.572 240.109C136.775 241.601 139.375 242.396 142.036 242.391" stroke="#263238" stroke-linecap="round" stroke-linejoin="round"/>
<path d="M174.192 222.761H133.662C132.341 222.761 131.074 223.286 130.14 224.22C129.206 225.154 128.682 226.42 128.682 227.741V229.005C128.678 232.015 129.694 234.938 131.564 237.297" stroke="#263238" stroke-linecap="round" stroke-linejoin="round"/>
<path d="M205.204 225.864C204.831 224.947 204.193 224.162 203.371 223.609C202.549 223.056 201.581 222.761 200.591 222.761H193.392" stroke="#263238" stroke-linecap="round" stroke-linejoin="round"/>
<path d="M174.28 246.063H156.938L153.292 242.391" stroke="#263238" stroke-linecap="round" stroke-linejoin="round"/>
<path d="M161.925 246.063H172.334V258.223C172.334 258.528 172.213 258.82 171.997 259.036C171.781 259.252 171.489 259.373 171.184 259.373H163.056C162.751 259.373 162.458 259.252 162.243 259.036C162.027 258.82 161.906 258.528 161.906 258.223V246.063H161.925Z" stroke="#263238" stroke-linecap="round" stroke-linejoin="round"/>
<path d="M170.381 259.366H163.871V274.357H170.381V259.366Z" stroke="#263238" stroke-linecap="round" stroke-linejoin="round"/>
<path d="M137.283 283.591C148.135 276.367 163.871 274.357 163.871 274.357" stroke="#263238" stroke-linecap="round" stroke-linejoin="round"/>
<path d="M174.255 281.436C163.277 279.824 152.35 282.251 142.023 284.912" stroke="#263238" stroke-linecap="round" stroke-linejoin="round"/>
<path d="M192.204 284.912C189.676 284.28 187.148 283.705 184.62 283.187" stroke="#263238" stroke-linecap="round" stroke-linejoin="round"/>
<path d="M184.968 277.884C189.197 279.259 193.232 281.171 196.976 283.572" stroke="#263238" stroke-linecap="round" stroke-linejoin="round"/>
<path d="M170.381 274.357C171.752 274.547 173.117 274.794 174.47 275.065" stroke="#263238" stroke-linecap="round" stroke-linejoin="round"/>
<path d="M138.56 291.757C140.815 291.757 142.642 289.929 142.642 287.674C142.642 285.419 140.815 283.591 138.56 283.591C136.305 283.591 134.477 285.419 134.477 287.674C134.477 289.929 136.305 291.757 138.56 291.757Z" stroke="#263238" stroke-linecap="round" stroke-linejoin="round"/>
<path d="M200.344 287.674C200.344 288.481 200.105 289.271 199.656 289.942C199.207 290.613 198.57 291.137 197.824 291.446C197.078 291.755 196.257 291.836 195.465 291.678C194.673 291.521 193.945 291.132 193.375 290.561C192.804 289.99 192.415 289.262 192.257 288.47C192.1 287.678 192.18 286.857 192.489 286.111C192.799 285.365 193.322 284.728 193.993 284.279C194.665 283.831 195.454 283.591 196.261 283.591C197.344 283.591 198.383 284.021 199.148 284.787C199.914 285.553 200.344 286.591 200.344 287.674Z" stroke="#263238" stroke-linecap="round" stroke-linejoin="round"/>
<path d="M191.287 234.061L194.492 212.352C194.64 211.339 195.113 210.402 195.841 209.681C196.568 208.961 197.51 208.496 198.524 208.358L213.414 206.31C213.967 206.235 214.475 205.962 214.842 205.541C215.209 205.121 215.411 204.581 215.411 204.022C215.411 203.409 215.167 202.821 214.733 202.387C214.3 201.953 213.711 201.709 213.098 201.709H211.202L196.451 203.984C194.694 204.267 193.076 205.112 191.84 206.393C190.605 207.674 189.818 209.322 189.6 211.088L186.516 234.624C186.489 234.829 186.506 235.037 186.566 235.235C186.626 235.433 186.728 235.616 186.864 235.772C187.001 235.927 187.169 236.052 187.357 236.137C187.545 236.223 187.75 236.267 187.957 236.267" stroke="#263238" stroke-linecap="round" stroke-linejoin="round"/>
<path d="M213.414 206.329L209.54 226.939C210.053 226.939 210.546 227.142 210.909 227.505C211.273 227.867 211.478 228.359 211.48 228.873V232.81C211.48 233.455 211.353 234.094 211.105 234.691C210.858 235.287 210.496 235.828 210.039 236.284C209.583 236.741 209.041 237.102 208.444 237.349C207.848 237.595 207.208 237.721 206.563 237.721H188.456" stroke="#263238" stroke-linecap="round" stroke-linejoin="round"/>
<path d="M210.848 206.683L206.822 226.496H196.236" stroke="#263238" stroke-linecap="round" stroke-linejoin="round"/>
<path d="M133.712 211.056L132.632 219.329" stroke="#263238" stroke-linecap="round" stroke-linejoin="round"/>
<path d="M137.485 220.151L138.636 212.352C138.784 211.339 139.257 210.402 139.984 209.681C140.712 208.961 141.653 208.496 142.668 208.358L157.558 206.31" stroke="#263238" stroke-linecap="round" stroke-linejoin="round"/>
<path d="M104.021 163.492L109.823 190.554C109.945 191.117 110.256 191.622 110.704 191.984C111.153 192.346 111.711 192.544 112.287 192.545H155.421C155.677 192.546 155.93 192.489 156.161 192.378C156.392 192.268 156.595 192.106 156.756 191.907C156.916 191.707 157.029 191.474 157.087 191.224C157.145 190.975 157.146 190.716 157.09 190.466L151.048 163.397C150.922 162.838 150.609 162.338 150.161 161.98C149.713 161.621 149.157 161.426 148.583 161.426H105.689C105.435 161.425 105.183 161.482 104.953 161.592C104.723 161.702 104.521 161.862 104.361 162.06C104.201 162.258 104.088 162.49 104.029 162.738C103.97 162.985 103.967 163.243 104.021 163.492Z" stroke="#263238" stroke-linecap="round" stroke-linejoin="round"/>
<path d="M128.903 173.901H125.566L124.618 176.89L127.013 179.88H130.35L131.298 176.89L128.903 173.901Z" stroke="#263238" stroke-linecap="round" stroke-linejoin="round"/>
<path d="M159.201 190.706H176.328V191.635C176.326 192.08 176.149 192.506 175.834 192.82C175.518 193.134 175.092 193.31 174.647 193.31H174.205" stroke="#263238" stroke-linecap="round" stroke-linejoin="round"/>
<path d="M252.617 257.622C252.617 257.622 262.128 258.374 262.526 265.396C262.526 265.396 252.895 269.826 252.617 257.622Z" stroke="#263238" stroke-linecap="round" stroke-linejoin="round"/>
<path d="M271.438 259.367C271.438 259.367 276.753 252.181 285.342 255.865C285.342 255.865 280.096 264.555 271.438 259.367Z" stroke="#263238" stroke-linecap="round" stroke-linejoin="round"/>
<path d="M284.615 236.678C284.615 236.678 286.138 250.506 273.555 246.695C273.555 246.695 277.555 236.532 284.615 236.678Z" stroke="#263238" stroke-linecap="round" stroke-linejoin="round"/>
<path d="M269.162 228.986C269.162 228.986 279.116 234.352 271.798 242.492C271.798 242.492 264.808 236.678 269.162 228.986Z" stroke="#263238" stroke-linecap="round" stroke-linejoin="round"/>
<path d="M256.921 241.336C256.921 241.336 267.741 240.249 267.741 250.259C267.741 250.272 256.921 250.689 256.921 241.336Z" stroke="#263238" stroke-linecap="round" stroke-linejoin="round"/>
<path d="M265.029 271.046C264.871 267.69 264.871 263.367 266.925 258.791C271.659 248.25 273.245 239.37 270.787 233.113" stroke="#263238" stroke-linecap="round" stroke-linejoin="round"/>
<path d="M260.472 244.028C260.472 244.028 266.957 246.606 269.162 253.287" stroke="#263238" stroke-linecap="round" stroke-linejoin="round"/>
<path d="M281.189 242.208C281.189 242.208 277.442 247.314 271.077 246.764" stroke="#263238" stroke-linecap="round" stroke-linejoin="round"/>
<path d="M281.189 257.332C281.189 257.332 270.812 260.327 266.685 259.348" stroke="#263238" stroke-linecap="round" stroke-linejoin="round"/>
<path d="M255.72 260.782C255.72 260.782 260.359 265.876 265.029 265.794" stroke="#263238" stroke-linecap="round" stroke-linejoin="round"/>
<path d="M277.366 271.046H254.81C254.664 271.046 254.524 271.104 254.421 271.207C254.318 271.31 254.26 271.45 254.26 271.596V273.308C254.26 273.454 254.318 273.594 254.421 273.697C254.524 273.8 254.664 273.858 254.81 273.858H255.442L257.452 291.396H274.674L276.683 273.858H277.315C277.461 273.858 277.601 273.8 277.704 273.697C277.807 273.594 277.865 273.454 277.865 273.308V271.596C277.866 271.458 277.815 271.326 277.722 271.224C277.63 271.122 277.503 271.059 277.366 271.046Z" stroke="#263238" stroke-linecap="round" stroke-linejoin="round"/>
<path d="M256.921 273.858H270.035" stroke="#263238" stroke-linecap="round" stroke-linejoin="round"/>
<path d="M272.512 273.858H274.484" stroke="#263238" stroke-linecap="round" stroke-linejoin="round"/>
<path d="M145.48 55.1483V230.794C145.48 231.198 145.32 231.585 145.034 231.871C144.748 232.156 144.361 232.317 143.957 232.317H39.9108C39.5069 232.317 39.1194 232.156 38.8338 231.871C38.5482 231.585 38.3877 231.198 38.3877 230.794V55.1483C38.3877 54.7444 38.5482 54.357 38.8338 54.0713C39.1194 53.7857 39.5069 53.6252 39.9108 53.6252H72.8064C73.2338 53.6252 73.6438 53.795 73.946 54.0972C74.2482 54.3995 74.418 54.8094 74.418 55.2368V58.9277C74.418 59.3551 74.5878 59.765 74.89 60.0673C75.1923 60.3695 75.6022 60.5393 76.0296 60.5393H107.844C108.272 60.5393 108.682 60.3695 108.984 60.0673C109.286 59.765 109.456 59.3551 109.456 58.9277V55.2368C109.456 54.8094 109.626 54.3995 109.928 54.0972C110.23 53.795 110.64 53.6252 111.068 53.6252H143.932C144.134 53.6219 144.335 53.6588 144.522 53.7338C144.71 53.8089 144.881 53.9205 145.025 54.0623C145.169 54.2041 145.284 54.3731 145.362 54.5596C145.44 54.746 145.48 54.9462 145.48 55.1483Z" fill="white" stroke="#263238" stroke-linecap="round" stroke-linejoin="round"/>
<path d="M145.48 70.9546H38.3877V87.0896H145.48V70.9546Z" fill="#BFBFBF" stroke="#263238" stroke-linecap="round" stroke-linejoin="round"/>
<path d="M52.3928 119.417H95.9819" stroke="#263238" stroke-linecap="round" stroke-linejoin="round"/>
<path d="M63.1558 126.981H131.475" stroke="#263238" stroke-linecap="round" stroke-linejoin="round"/>
<path d="M52.3928 132.632H131.475" stroke="#263238" stroke-linecap="round" stroke-linejoin="round"/>
<path d="M52.3928 138.282H131.475" stroke="#263238" stroke-linecap="round" stroke-linejoin="round"/>
<path d="M52.3928 143.925H131.475" stroke="#263238" stroke-linecap="round" stroke-linejoin="round"/>
<path d="M52.3928 149.575H131.475" stroke="#263238" stroke-linecap="round" stroke-linejoin="round"/>
<path d="M52.3928 155.226H131.475" stroke="#263238" stroke-linecap="round" stroke-linejoin="round"/>
<path d="M52.3928 160.869H89.112" stroke="#263238" stroke-linecap="round" stroke-linejoin="round"/>
<path d="M133.428 77.0344H137.466" stroke="#263238" stroke-linecap="round" stroke-linejoin="round"/>
<path d="M133.428 78.8989H137.466" stroke="#263238" stroke-linecap="round" stroke-linejoin="round"/>
<path d="M133.428 80.7571H137.466" stroke="#263238" stroke-linecap="round" stroke-linejoin="round"/>
<path d="M49.612 78.8989H46.1992" stroke="#263238" stroke-linecap="round" stroke-linejoin="round"/>
<path d="M47.7666 80.9592L45.7 78.8926L47.7666 76.8259" stroke="#263238" stroke-linecap="round" stroke-linejoin="round"/>
<path d="M127.474 77.0344H122.387V80.7506H127.474V77.0344Z" stroke="#263238" stroke-linecap="round" stroke-linejoin="round"/>
<path d="M122.387 77.0344L124.927 78.8925L127.474 77.0344" stroke="#263238" stroke-linecap="round" stroke-linejoin="round"/>
<path d="M115.814 81.4711H112.389L111.934 77.0344H116.269L115.814 81.4711Z" stroke="#263238" stroke-linecap="round" stroke-linejoin="round"/>
<path d="M113.248 77.0345V76.3203H114.961V77.0345" stroke="#263238" stroke-linecap="round" stroke-linejoin="round"/>
<path d="M145.48 219.5V230.794C145.481 230.994 145.442 231.191 145.366 231.376C145.291 231.561 145.179 231.729 145.038 231.87C144.897 232.012 144.73 232.124 144.545 232.201C144.361 232.278 144.163 232.317 143.963 232.317H39.9108C39.5069 232.317 39.1194 232.156 38.8338 231.871C38.5482 231.585 38.3877 231.198 38.3877 230.794V219.5H145.48Z" fill="#00A86B" stroke="#263238" stroke-linecap="round" stroke-linejoin="round"/>
<path d="M65.5637 100.684H109.159" stroke="#263238" stroke-linecap="round" stroke-linejoin="round"/>
<path d="M57.5501 105.987C60.4821 105.511 62.4732 102.749 61.9972 99.8165C61.5213 96.8846 58.7586 94.8935 55.8267 95.3695C52.8947 95.8454 50.9036 98.608 51.3796 101.54C51.8555 104.472 54.6182 106.463 57.5501 105.987Z" fill="#00A86B" stroke="#263238" stroke-linecap="round" stroke-linejoin="round"/>
<path d="M58.8834 104.046C58.5548 104.046 57.6194 103.326 57.9354 102.738C58.2514 102.15 58.8834 101.177 58.8834 101.177C59.1614 100.629 59.3166 100.028 59.3384 99.4137C59.4712 98.4973 58.9466 96.9363 56.684 96.9363C54.4215 96.9363 53.8906 98.4973 54.0233 99.4137C54.0451 100.028 54.2004 100.629 54.4784 101.177C54.4784 101.177 55.1104 102.15 55.4327 102.738C55.755 103.326 54.8007 104.046 54.4784 104.046C53.9499 104.164 53.4336 104.331 52.9363 104.546C52.9363 104.546 55.104 106.069 56.684 106.069C58.264 106.069 60.4318 104.546 60.4318 104.546C59.9326 104.33 59.4142 104.163 58.8834 104.046Z" fill="#263238"/>
<path d="M38.3877 172.024H145.48" stroke="#263238" stroke-linecap="round" stroke-linejoin="round"/>
<path d="M145.48 201.425H38.3877V219.5H145.48V201.425Z" fill="#BFBFBF" stroke="#263238" stroke-linecap="round" stroke-linejoin="round"/>
<path d="M121.976 178.805H130.824C131.654 178.805 132.45 179.135 133.036 179.722C133.623 180.308 133.953 181.104 133.953 181.934V190.782C133.953 191.612 133.623 192.407 133.036 192.994C132.45 193.581 131.654 193.91 130.824 193.91H121.976C121.148 193.91 120.354 193.581 119.768 192.996C119.183 192.41 118.854 191.616 118.854 190.788V181.94C118.852 181.529 118.932 181.122 119.088 180.741C119.244 180.361 119.474 180.016 119.764 179.724C120.054 179.433 120.399 179.202 120.778 179.044C121.158 178.887 121.565 178.805 121.976 178.805Z" fill="#00A86B" stroke="#263238" stroke-linecap="round" stroke-linejoin="round"/>
<path d="M124.087 185.176L126.21 183.053C126.428 182.835 126.687 182.662 126.972 182.544C127.256 182.426 127.561 182.365 127.869 182.365C128.178 182.365 128.483 182.426 128.767 182.544C129.052 182.662 129.311 182.835 129.528 183.053C129.969 183.493 130.217 184.091 130.217 184.715C130.217 185.338 129.969 185.936 129.528 186.377L126.071 189.834C125.926 189.98 125.753 190.095 125.563 190.174C125.372 190.253 125.168 190.294 124.962 190.294C124.756 190.294 124.552 190.253 124.362 190.174C124.172 190.095 123.999 189.98 123.853 189.834C123.562 189.539 123.399 189.142 123.399 188.728C123.399 188.314 123.562 187.916 123.853 187.622L127.14 184.336C127.277 184.198 127.463 184.121 127.658 184.121C127.852 184.121 128.039 184.198 128.176 184.336C128.245 184.403 128.299 184.484 128.337 184.573C128.374 184.662 128.393 184.757 128.393 184.854C128.393 184.95 128.374 185.046 128.337 185.135C128.299 185.224 128.245 185.304 128.176 185.372L126.4 187.142" stroke="#263238" stroke-linecap="round" stroke-linejoin="round"/>
<path d="M52.3928 183.514H111.693" stroke="#263238" stroke-linecap="round" stroke-linejoin="round"/>
<path d="M52.3928 189.164H101.803" stroke="#263238" stroke-linecap="round" stroke-linejoin="round"/>
<path d="M65.4372 205.893H54.0233C52.8645 205.893 51.925 206.832 51.925 207.991V212.832C51.925 213.991 52.8645 214.931 54.0233 214.931H65.4372C66.596 214.931 67.5354 213.991 67.5354 212.832V207.991C67.5354 206.832 66.596 205.893 65.4372 205.893Z" stroke="#263238" stroke-linecap="round" stroke-linejoin="round"/>
<path d="M62.0813 212.251V211.619C62.0813 211.409 62.0399 211.201 61.9596 211.007C61.8792 210.813 61.7615 210.637 61.613 210.488C61.4645 210.34 61.2882 210.222 61.0942 210.142C60.9002 210.061 60.6923 210.02 60.4823 210.02H57.8406" stroke="#263238" stroke-linecap="round" stroke-linejoin="round"/>
<path d="M58.8138 211.436L57.3855 210.007L58.8138 208.579" stroke="#263238" stroke-linecap="round" stroke-linejoin="round"/>
<path d="M98.0295 205.893H86.6156C85.4568 205.893 84.5173 206.832 84.5173 207.991V212.832C84.5173 213.991 85.4568 214.931 86.6156 214.931H98.0295C99.1883 214.931 100.128 213.991 100.128 212.832V207.991C100.128 206.832 99.1883 205.893 98.0295 205.893Z" stroke="#263238" stroke-linecap="round" stroke-linejoin="round"/>
<path d="M95.4321 212.251V211.619C95.4321 211.195 95.2637 210.788 94.9638 210.488C94.6639 210.188 94.2572 210.02 93.8332 210.02H91.1914" stroke="#263238" stroke-linecap="round" stroke-linejoin="round"/>
<path d="M92.1456 211.436L90.7173 210.007L92.1456 208.579" stroke="#263238" stroke-linecap="round" stroke-linejoin="round"/>
<path d="M90.6668 211.436L89.2322 210.007L90.6668 208.579" stroke="#263238" stroke-linecap="round" stroke-linejoin="round"/>
<path d="M119.954 214.937H131.368C132.526 214.937 133.466 213.998 133.466 212.839V207.998C133.466 206.839 132.526 205.899 131.368 205.899H119.954C118.795 205.899 117.855 206.839 117.855 207.998V212.839C117.855 213.998 118.795 214.937 119.954 214.937Z" stroke="#263238" stroke-linecap="round" stroke-linejoin="round"/>
<path d="M123.31 212.251V211.619C123.31 211.195 123.478 210.788 123.778 210.488C124.078 210.188 124.484 210.02 124.909 210.02H127.55" stroke="#263238" stroke-linecap="round" stroke-linejoin="round"/>
<path d="M126.577 211.436L128.005 210.007L126.577 208.579" stroke="#263238" stroke-linecap="round" stroke-linejoin="round"/>
<path d="M145.48 55.142V70.942H38.3877V55.142C38.3877 54.7381 38.5482 54.3507 38.8338 54.065C39.1194 53.7794 39.5069 53.6189 39.9108 53.6189H72.8064C73.2338 53.6189 73.6437 53.7887 73.946 54.0909C74.2482 54.3932 74.418 54.8031 74.418 55.2305V58.9214C74.418 59.3488 74.5878 59.7587 74.89 60.0609C75.1923 60.3632 75.6022 60.533 76.0296 60.533H107.844C108.272 60.533 108.682 60.3632 108.984 60.0609C109.286 59.7587 109.456 59.3488 109.456 58.9214V55.2368C109.456 54.8094 109.626 54.3995 109.928 54.0972C110.23 53.795 110.64 53.6252 111.068 53.6252H143.932C144.134 53.6201 144.335 53.6557 144.523 53.7297C144.711 53.8037 144.882 53.9148 145.027 54.0562C145.171 54.1976 145.286 54.3666 145.363 54.5531C145.441 54.7396 145.481 54.9399 145.48 55.142Z" fill="#00A86B" stroke="#263238" stroke-linecap="round" stroke-linejoin="round"/>
<path d="M177.421 124.46V126.04" stroke="#263238" stroke-linecap="round" stroke-linejoin="round"/>
<path d="M177.421 129.111V182.863" stroke="#263238" stroke-linecap="round" stroke-linejoin="round" stroke-dasharray="4.86 4.86"/>
<path d="M177.421 184.399V185.979H175.841" stroke="#263238" stroke-linecap="round" stroke-linejoin="round"/>
<path d="M172.865 185.979H138.635" stroke="#263238" stroke-linecap="round" stroke-linejoin="round" stroke-dasharray="4.71 4.71"/>
<path d="M137.15 185.979H135.57" stroke="#263238" stroke-linecap="round" stroke-linejoin="round"/>
<path d="M252.408 279.237C252.408 279.237 252.579 284.09 250.91 285.753C249.242 287.415 249.912 291.757 249.912 291.757H264.998L265.415 287.206L262.887 278.124L252.408 279.237Z" fill="#757575" stroke="#263238" stroke-linecap="round" stroke-linejoin="round"/>
<path d="M215.411 278.124C215.411 278.124 217.073 282.51 210.905 284.634C204.736 286.757 201.071 286.757 200.572 290.252V291.757H213.749L217.907 290.423L219.241 291.757H226.578L227.406 289.089L226.256 280.355L215.411 278.124Z" fill="#757575" stroke="#263238" stroke-linecap="round" stroke-linejoin="round"/>
<path d="M216.492 158.48L213.37 175.747C213.37 175.747 211.562 201.507 211.777 212.251C211.992 222.995 215.74 271.615 215.493 273.555C215.247 275.495 213.25 277.619 213.37 277.935C213.49 278.251 214.128 280.728 214.128 280.728L226.522 282.504L228.241 279.249C228.241 279.249 226.054 276.462 226.522 275.615C227.24 273.937 227.815 272.201 228.241 270.426C228.493 269.264 230.92 203.333 230.92 203.333C230.92 203.333 247.984 268.581 247.984 271.052C247.984 273.523 250.734 276.291 250.734 276.291L249.779 281.24L251.998 283.654C251.998 283.654 258.412 280.741 264.745 283.654L264.41 278.731L262.514 276.266L263.013 272.822C263.013 272.822 260.441 246.088 257.603 233.41C254.766 220.732 252.939 178.426 252.162 175.38C251.384 172.334 248.793 156.818 248.793 156.818L216.492 158.48Z" fill="#263238"/>
<path d="M197.98 67.3523H156.862C154.786 67.3523 153.102 69.0359 153.102 71.1127V118.911C153.102 120.988 154.786 122.671 156.862 122.671H197.98C200.057 122.671 201.741 120.988 201.741 118.911V71.1127C201.741 69.0359 200.057 67.3523 197.98 67.3523Z" fill="#00A86B" stroke="#263238" stroke-linecap="round" stroke-linejoin="round"/>
<path d="M187.988 79.4929H163.739V114.209H187.988V79.4929Z" fill="white"/>
<mask id="mask0_43_5483" style="mask-type:luminance" maskUnits="userSpaceOnUse" x="163" y="79" width="25" height="36">
<path d="M187.988 79.4929H163.739V114.209H187.988V79.4929Z" fill="white"/>
</mask>
<g mask="url(#mask0_43_5483)">
<path opacity="0.4" d="M187.988 79.4929H163.739V114.209H187.988V79.4929Z" fill="#00A86B"/>
</g>
<path d="M187.988 79.4929H163.739V114.209H187.988V79.4929Z" stroke="#263238" stroke-linecap="round" stroke-linejoin="round"/>
<path d="M187.194 74.5896L163.413 79.3372L170.21 113.381L193.99 108.634L187.194 74.5896Z" fill="white" stroke="#263238" stroke-linecap="round" stroke-linejoin="round"/>
<path d="M165.192 78.8105C165.371 78.3807 165.672 78.0133 166.059 77.7546C166.446 77.4959 166.901 77.3576 167.366 77.3569C167.988 77.3569 168.584 77.604 169.024 78.0437C169.464 78.4834 169.711 79.0798 169.711 79.7017V84.5933C169.711 85.0079 169.547 85.4056 169.254 85.6994C168.962 85.9932 168.564 86.159 168.15 86.1607C167.734 86.1607 167.336 85.9956 167.042 85.7016C166.748 85.4077 166.583 85.009 166.583 84.5933V79.9481C166.583 79.7537 166.66 79.5672 166.797 79.4297C166.935 79.2923 167.121 79.215 167.316 79.215C167.412 79.215 167.507 79.234 167.596 79.2708C167.685 79.3077 167.766 79.3617 167.834 79.4297C167.902 79.4978 167.956 79.5786 167.993 79.6676C168.03 79.7565 168.049 79.8519 168.049 79.9481V82.4445" stroke="#263238" stroke-linecap="round" stroke-linejoin="round"/>
<path d="M202.72 131.74C202.72 135.141 197.664 136.164 197.664 136.164C188.412 127.677 186.326 117.249 181.826 115.593C181.419 115.437 181.044 115.208 180.72 114.917C179.814 114.011 179.127 112.911 178.711 111.7L184.696 110.505C184.965 108.946 185.511 107.448 186.307 106.081C186.743 105.449 186.111 104.034 185.372 102.428C185.243 102.099 185.203 101.741 185.257 101.391C185.312 101.041 185.458 100.712 185.682 100.438C187.083 101.581 188.19 103.044 188.911 104.704C189.828 107.149 188.911 112.919 191.61 115.751C196.445 120.845 197.171 120.554 201.722 124.472C202.291 126.857 202.625 129.291 202.72 131.74Z" fill="white"/>
<mask id="mask1_43_5483" style="mask-type:luminance" maskUnits="userSpaceOnUse" x="178" y="100" width="25" height="37">
<path d="M202.72 131.74C202.72 135.141 197.664 136.164 197.664 136.164C188.412 127.677 186.326 117.249 181.826 115.593C181.419 115.437 181.044 115.208 180.72 114.917C179.814 114.011 179.127 112.911 178.711 111.7L184.696 110.505C184.965 108.946 185.511 107.448 186.307 106.081C186.743 105.449 186.111 104.034 185.372 102.428C185.243 102.099 185.203 101.741 185.257 101.391C185.312 101.041 185.458 100.712 185.682 100.438C187.083 101.581 188.19 103.044 188.911 104.704C189.828 107.149 188.911 112.919 191.61 115.751C196.445 120.845 197.171 120.554 201.722 124.472C202.291 126.857 202.625 129.291 202.72 131.74Z" fill="white"/>
</mask>
<g mask="url(#mask1_43_5483)">
<path opacity="0.4" d="M180.714 114.898C179.808 113.993 179.12 112.892 178.704 111.681L184.689 110.486C184.522 111.429 184.522 112.394 184.689 113.337C184.879 114.076 182.534 114.082 180.714 114.898Z" fill="#00A86B"/>
</g>
<path d="M202.72 131.74C202.72 135.141 197.664 136.164 197.664 136.164C188.412 127.677 186.326 117.249 181.826 115.593C181.419 115.437 181.044 115.208 180.72 114.917C179.814 114.011 179.127 112.911 178.711 111.7L184.696 110.505C184.965 108.946 185.511 107.448 186.307 106.081C186.743 105.449 186.111 104.034 185.372 102.428C185.243 102.099 185.203 101.741 185.257 101.391C185.312 101.041 185.458 100.712 185.682 100.438C187.083 101.581 188.19 103.044 188.911 104.704C189.828 107.149 188.911 112.919 191.61 115.751C196.445 120.845 197.171 120.554 201.722 124.472C202.291 126.857 202.625 129.291 202.72 131.74Z" stroke="#263238" stroke-linecap="round" stroke-linejoin="round"/>
<path d="M219.405 106.069V128.239C219.405 128.239 216.523 131.083 213.395 134.079C210.052 137.283 206.443 140.658 205.741 140.93C204.408 141.448 201.741 139.407 201.741 139.407C200.243 140.405 198.739 138.282 198.739 138.282C197.241 139.817 195.737 137.239 197.576 134.572C199.415 131.905 201.741 124.46 201.741 124.46C201.849 124.347 201.978 124.258 202.122 124.197C202.265 124.136 202.419 124.104 202.575 124.104C202.731 124.104 202.885 124.136 203.028 124.197C203.172 124.258 203.301 124.347 203.409 124.46C203.409 124.46 214.88 108.236 219.405 106.069Z" fill="#00A86B"/>
<mask id="mask2_43_5483" style="mask-type:luminance" maskUnits="userSpaceOnUse" x="196" y="106" width="24" height="36">
<path d="M219.405 106.069V128.239C219.405 128.239 216.523 131.083 213.395 134.079C210.052 137.283 206.443 140.658 205.741 140.93C204.408 141.448 201.741 139.407 201.741 139.407C200.243 140.405 198.739 138.282 198.739 138.282C197.241 139.817 195.737 137.239 197.576 134.572C199.415 131.905 201.741 124.46 201.741 124.46C201.849 124.347 201.978 124.258 202.122 124.197C202.265 124.136 202.419 124.104 202.575 124.104C202.731 124.104 202.885 124.136 203.028 124.197C203.172 124.258 203.301 124.347 203.409 124.46C203.409 124.46 214.88 108.236 219.405 106.069Z" fill="white"/>
</mask>
<g mask="url(#mask2_43_5483)">
<path opacity="0.2" d="M219.405 115.555V128.239C219.405 128.239 216.523 131.083 213.395 134.079C212.077 132.688 211.16 130.968 210.74 129.099C210.368 126.457 213.49 128.366 213.49 128.366C211.24 126.103 213.869 115.726 214.002 117.489C214.115 118.911 214.482 122.001 214.634 123.12C214.33 119.138 218.324 116.004 219.405 115.555Z" fill="black" fill-opacity="0.7"/>
</g>
<path d="M219.405 106.069V128.239C219.405 128.239 216.523 131.083 213.395 134.079C210.052 137.283 206.443 140.658 205.741 140.93C204.408 141.448 201.741 139.407 201.741 139.407C200.243 140.405 198.739 138.282 198.739 138.282C197.241 139.817 195.737 137.239 197.576 134.572C199.415 131.905 201.741 124.46 201.741 124.46C201.849 124.347 201.978 124.258 202.122 124.197C202.265 124.136 202.419 124.104 202.575 124.104C202.731 124.104 202.885 124.136 203.028 124.197C203.172 124.258 203.301 124.347 203.409 124.46C203.409 124.46 214.88 108.236 219.405 106.069Z" stroke="#263238" stroke-linecap="round" stroke-linejoin="round"/>
<path d="M250.076 158.424C251.309 160.427 217.377 161.287 215.038 159.688C214.757 159.503 214.52 159.259 214.343 158.973C213.281 157.248 215.038 154.682 215.038 154.682C215.038 154.682 214.741 119.398 219.405 106.069C223.906 105.575 228.434 105.364 232.962 105.437C235.989 105.481 239.339 105.652 242.802 106.069C245.33 106.347 248.401 106.865 251.454 107.434C256.554 108.394 261.566 109.519 263.519 109.962L264.41 110.17C264.41 110.17 248.844 156.426 250.076 158.424Z" fill="#00A86B"/>
<mask id="mask3_43_5483" style="mask-type:luminance" maskUnits="userSpaceOnUse" x="214" y="105" width="51" height="56">
<path d="M250.076 158.424C251.309 160.427 217.377 161.287 215.038 159.688C214.757 159.503 214.52 159.259 214.343 158.973C213.281 157.248 215.038 154.682 215.038 154.682C215.038 154.682 214.741 119.398 219.405 106.069C223.906 105.575 228.434 105.364 232.962 105.437C235.989 105.481 239.339 105.652 242.802 106.069C245.33 106.347 248.401 106.865 251.454 107.434C256.554 108.394 261.566 109.519 263.519 109.962L264.41 110.17C264.41 110.17 248.844 156.426 250.076 158.424Z" fill="white"/>
</mask>
<g mask="url(#mask3_43_5483)">
<path opacity="0.2" d="M230.604 113.337C230.604 113.337 228.335 109.501 232.115 106.069C232.375 105.83 232.659 105.618 232.962 105.437C235.989 105.481 239.339 105.652 242.802 106.069C245.33 106.347 248.401 106.865 251.454 107.434L237.872 114.613L235.054 111.738L230.604 113.337Z" fill="black" fill-opacity="0.7"/>
<path opacity="0.2" d="M250.076 158.424C251.309 160.427 217.377 161.287 215.038 159.688C214.757 159.503 214.52 159.259 214.343 158.974C221.08 160.2 237.727 158.658 242.246 156.831C247.618 154.67 250.746 144.867 249.034 145.866C247.321 146.864 241.62 146.245 245.93 144.115C250.241 141.985 255.031 135.008 255.031 135.008C255.031 135.008 251.998 126.242 252.996 124.46C253.723 123.152 254.658 125.572 255.107 126.988C254.342 123.386 257.073 119.79 257.073 119.79L263.544 109.968L264.435 110.177C264.435 110.177 248.844 156.427 250.076 158.424Z" fill="black" fill-opacity="0.7"/>
</g>
<path d="M250.076 158.424C251.309 160.427 217.377 161.287 215.038 159.688C214.757 159.503 214.52 159.259 214.343 158.973C213.281 157.248 215.038 154.682 215.038 154.682C215.038 154.682 214.741 119.398 219.405 106.069C223.906 105.575 228.434 105.364 232.962 105.437C235.989 105.481 239.339 105.652 242.802 106.069C245.33 106.347 248.401 106.865 251.454 107.434C256.554 108.394 261.566 109.519 263.519 109.962L264.41 110.17C264.41 110.17 248.844 156.426 250.076 158.424Z" stroke="#263238" stroke-linecap="round" stroke-linejoin="round"/>
<path d="M248.18 106.656C248.18 106.656 235.54 111.712 231.413 106.429C232.117 106.469 232.82 106.33 233.456 106.027C234.092 105.723 234.642 105.263 235.053 104.691C235.702 103.686 236.055 102.518 236.071 101.322C236.127 100.203 236.055 99.0815 235.856 97.9789C235.369 95.0149 247.813 96.9298 247.813 96.9298C247.813 96.9298 245.14 105.165 248.18 106.656Z" fill="white" stroke="#263238" stroke-linecap="round" stroke-linejoin="round"/>
<path d="M240.697 100.147C240.697 100.147 238.523 103.894 235.053 104.691C235.702 103.686 236.055 102.518 236.071 101.322C238.422 100.64 240.697 100.147 240.697 100.147Z" fill="#263238"/>
<path d="M247.814 96.2473C251.334 91.0333 256.7 70.4554 239.389 74.4749C230.781 76.4721 231.894 87.7469 231.894 87.7469L228.929 91.4189L231.382 93.4981L231.28 95.944L232.115 96.241C232.115 96.241 231.382 102.188 232.115 102.561C233.455 103.244 242.258 102.169 242.258 100.033" fill="white"/>
<path d="M247.814 96.2473C251.334 91.0333 256.7 70.4554 239.389 74.4749C230.781 76.4721 231.894 87.7469 231.894 87.7469L228.929 91.4189L231.382 93.4981L231.28 95.944L232.115 96.241C232.115 96.241 231.382 102.188 232.115 102.561C233.455 103.244 242.258 102.169 242.258 100.033" stroke="#263238" stroke-linecap="round" stroke-linejoin="round"/>
<path d="M232.115 96.2473C233.559 96.4282 235.019 96.4537 236.469 96.3232C236.145 96.8952 235.63 97.3351 235.014 97.5661C234.399 97.7971 233.721 97.8046 233.101 97.5872" stroke="#263238" stroke-linecap="round" stroke-linejoin="round"/>
<path d="M233.36 83.2345C233.36 83.2345 236.298 82.9438 237.689 84.9219" stroke="#263238" stroke-linecap="round" stroke-linejoin="round"/>
<path d="M235.104 87.747C235.104 88.3348 234.864 88.8088 234.573 88.8088C234.282 88.8088 234.042 88.3348 234.042 87.747C234.042 87.1593 234.276 86.679 234.573 86.679C234.87 86.679 235.104 87.1593 235.104 87.747Z" fill="#263238"/>
<path d="M253.167 77.6096C250.38 74.734 238.447 70.5186 235.054 72.2566C230.073 74.1526 231.413 79.5941 231.413 79.5941L232.115 77.6981C232.115 77.6981 232.481 79.3034 235.054 80.2703V79.0695C236.68 79.7352 238.44 80.0101 240.192 79.8722L239.648 79.0632C240.32 79.216 240.981 79.4145 241.626 79.6573C239.73 83.1965 241.873 85.6992 241.873 85.6992V90.4898C241.873 90.4898 244.401 92.9609 245.115 95.451C245.262 96.1252 245.594 96.7449 246.075 97.2407C246.555 97.7364 247.163 98.0883 247.833 98.257C253.318 94.8948 256.099 80.6369 253.167 77.6096Z" fill="#263238"/>
<path d="M241.285 91.1977C241.285 91.1977 243.996 87.5448 245.393 88.1262C246.79 88.7076 247.15 92.0762 246.417 93.6183C245.684 95.1604 243.042 98.3077 242.46 97.1385" fill="white"/>
<path d="M241.285 91.1977C241.285 91.1977 243.996 87.5448 245.393 88.1262C246.79 88.7076 247.15 92.0762 246.417 93.6183C245.684 95.1604 243.042 98.3077 242.46 97.1385" stroke="#263238" stroke-linecap="round" stroke-linejoin="round"/>
<path d="M203.409 124.46C204.606 128.635 204.606 133.063 203.409 137.239" stroke="#263238" stroke-linecap="round" stroke-linejoin="round"/>
<path d="M198.739 138.282C198.739 138.282 201.267 134.408 201.741 131.74" stroke="#263238" stroke-linecap="round" stroke-linejoin="round"/>
<path d="M232.115 108.837L233.379 113.337C233.379 113.337 225.928 138.244 225.093 145.411L226.762 147.939L229.922 145.556C229.922 145.556 233.044 121.034 235.066 114.19L238.902 108.995L236.482 108.755L232.115 108.837Z" fill="#263238"/>
<path d="M234.061 104.691L235.527 107.737L248.167 104.691L251.441 107.434L237.676 113.337L235.515 109.014L231.401 111.908C231.401 111.908 228.373 105.14 234.061 104.691Z" fill="#00A86B" stroke="#263238" stroke-linecap="round" stroke-linejoin="round"/>
<path d="M263.374 146.864C260.032 149.908 257.129 153.4 254.747 157.242C251.372 162.993 246.246 168.744 243.617 170.242C243.617 170.242 243.87 175.367 247.118 178.243C247.118 178.243 268.493 159.283 271.134 153.368C273.776 147.452 263.374 146.864 263.374 146.864Z" fill="white" stroke="#263238" stroke-linecap="round" stroke-linejoin="round"/>
<path d="M264.41 110.177C268.41 112.073 273.89 145.891 274.054 150.574C274.098 152.072 271.077 155.314 271.077 155.314C271.077 155.314 271.128 158.221 269.27 158.474C269.27 158.474 263.746 152.786 259.076 150.599C258.973 150.344 258.939 150.066 258.977 149.793C259.015 149.52 259.124 149.262 259.293 149.044C259.461 148.826 259.684 148.656 259.939 148.551C260.193 148.446 260.471 148.409 260.744 148.444L257.123 132.644C253.242 119.625 261.414 113.052 261.414 113.052" fill="#00A86B"/>
<path d="M264.41 110.177C268.41 112.073 273.89 145.891 274.054 150.574C274.098 152.072 271.077 155.314 271.077 155.314C271.077 155.314 271.128 158.221 269.27 158.474C269.27 158.474 263.746 152.786 259.076 150.599C258.973 150.344 258.939 150.066 258.977 149.793C259.015 149.52 259.124 149.262 259.293 149.044C259.461 148.826 259.684 148.656 259.939 148.551C260.193 148.446 260.471 148.409 260.744 148.444L257.123 132.644C253.242 119.625 261.414 113.052 261.414 113.052" stroke="#263238" stroke-linecap="round" stroke-linejoin="round"/>
<path d="M260.744 148.45C260.744 148.45 266.243 148.868 269.245 153.367" stroke="#263238" stroke-linecap="round" stroke-linejoin="round"/>
<path d="M235.825 164.32C239.218 164.199 242.597 163.83 245.937 163.214L245.671 160.174C242.299 160.682 238.903 161.011 235.496 161.16C235.591 162.02 235.736 163.385 235.825 164.32Z" fill="#757575" stroke="#263238" stroke-linecap="round" stroke-linejoin="round"/>
<path d="M247.169 162.98C247.801 162.847 248.433 162.702 249.065 162.55L248.61 159.675C248.61 159.675 248.016 159.808 246.904 159.997L247.169 162.98Z" fill="#757575" stroke="#263238" stroke-linecap="round" stroke-linejoin="round"/>
<path d="M234.074 161.211C229.115 161.367 224.15 161.218 219.209 160.762L218.849 163.499C223.944 164.19 229.085 164.488 234.226 164.39L234.074 161.211Z" fill="#757575" stroke="#263238" stroke-linecap="round" stroke-linejoin="round"/>
<path d="M218.198 160.661L216.934 160.528L216.599 163.151C216.599 163.151 217.054 163.233 217.863 163.353L218.198 160.661Z" fill="#757575" stroke="#263238" stroke-linecap="round" stroke-linejoin="round"/>
<path d="M228.114 164.611L222.616 164.421L223.033 160.926L228.531 161.116L228.114 164.611Z" fill="#BFBFBF" stroke="#263238" stroke-linecap="round" stroke-linejoin="round"/>
<path d="M201.241 290.423H212.99L218.489 289.254L220.827 290.423H225.662" stroke="#263238" stroke-linecap="round" stroke-linejoin="round"/>
<path d="M250.575 290.423H263.828" stroke="#263238" stroke-linecap="round" stroke-linejoin="round"/>
<path d="M252.244 284.944C252.244 284.944 257.982 282.612 261.496 284.173" stroke="#263238" stroke-linecap="round" stroke-linejoin="round"/>
<path d="M239.8 121.729L249.033 122.671L246.872 132.366L241.993 132.985L237.872 130.369L238.89 122.671" stroke="#263238" stroke-linecap="round" stroke-linejoin="round"/>
<path d="M262.748 122.671C262.748 122.671 258.785 124.22 258.368 130.255" stroke="#263238" stroke-linecap="round" stroke-linejoin="round"/>
<path d="M213.49 119.24C213.49 119.24 213.938 125.667 215.841 129.143" stroke="#263238" stroke-linecap="round" stroke-linejoin="round"/>
<path d="M217.408 155.219C217.408 155.219 233.537 153.993 238.264 149.62" stroke="#263238" stroke-linecap="round" stroke-linejoin="round"/>
<path d="M253.868 126.457C253.868 126.457 254.879 130.489 256.876 131.741" stroke="#263238" stroke-linecap="round" stroke-linejoin="round"/>
<g opacity="0.2">
<path d="M224.36 168.814C224.36 168.814 224.151 180.55 225.068 182.023C225.984 183.495 226.528 183.773 226.528 183.773" stroke="white" stroke-linecap="round" stroke-linejoin="round"/>
<path d="M226.534 168.112C226.534 168.112 226.578 185.751 228.531 191.629" stroke="white" stroke-linecap="round" stroke-linejoin="round"/>
<path d="M242.246 166.848C242.246 166.848 242.454 176.17 249.033 180.259" stroke="white" stroke-linecap="round" stroke-linejoin="round"/>
<path d="M250.992 177.302C250.992 177.302 251.245 186.996 250.992 188.994C250.74 190.991 252.37 200.42 252.37 204.332C252.37 208.244 253.742 214.375 253.742 215.746" stroke="white" stroke-linecap="round" stroke-linejoin="round"/>
<path d="M229.119 194.656C229.119 194.656 238.687 197.747 240.716 197.38" stroke="white" stroke-linecap="round" stroke-linejoin="round"/>
<path d="M229.119 196.729C228.12 195.87 220.492 199.693 219.494 199.257" stroke="white" stroke-linecap="round" stroke-linejoin="round"/>
<path d="M229.119 199.314C228.866 199.744 221.364 210.172 220.366 209.021" stroke="white" stroke-linecap="round" stroke-linejoin="round"/>
<path d="M230.37 197.961C230.37 197.961 238.308 205.874 240.716 206.746" stroke="white" stroke-linecap="round" stroke-linejoin="round"/>
<path d="M252.244 275.23C252.244 275.23 257.995 269.953 258.621 268.853C259.246 267.753 253.122 266.502 253.122 266.502" stroke="white" stroke-linecap="round" stroke-linejoin="round"/>
<path d="M253.742 278.125C253.742 278.125 257.995 276.62 260.744 277.941" stroke="white" stroke-linecap="round" stroke-linejoin="round"/>
<path d="M218.116 272.55C218.116 272.55 223.614 269.163 223.494 267.146" stroke="white" stroke-linecap="round" stroke-linejoin="round"/>
<path d="M225.656 273.877C225.656 273.877 219.241 277.417 217.364 277.398C215.487 277.379 222.489 280.002 224.24 279.629" stroke="white" stroke-linecap="round" stroke-linejoin="round"/>
</g>
<path d="M172.119 102.479L181.574 100.595" stroke="#263238" stroke-linecap="round" stroke-linejoin="round"/>
<path d="M171.67 100.071L188.134 96.7844" stroke="#263238" stroke-linecap="round" stroke-linejoin="round"/>
<path d="M171.228 97.6631L187.685 94.3767" stroke="#263238" stroke-linecap="round" stroke-linejoin="round"/>
<path d="M170.779 95.2551L187.236 91.9688" stroke="#263238" stroke-linecap="round" stroke-linejoin="round"/>
<path d="M170.33 92.8408L186.788 89.5544" stroke="#263238" stroke-linecap="round" stroke-linejoin="round"/>
<path d="M169.882 90.4329L186.339 87.1465" stroke="#263238" stroke-linecap="round" stroke-linejoin="round"/>
<path d="M169.433 88.0249L185.89 84.7385" stroke="#263238" stroke-linecap="round" stroke-linejoin="round"/>
<path d="M173.377 84.7387L185.442 82.3308" stroke="#263238" stroke-linecap="round" stroke-linejoin="round"/>
<path d="M26.6326 291.757H291.757" stroke="#263238" stroke-linecap="round" stroke-linejoin="round"/>
</svg>
