<svg width="316" height="316" viewBox="0 0 316 316" fill="none" xmlns="http://www.w3.org/2000/svg">
<path d="M226.844 257.091C226.844 257.091 236.008 257.041 246.17 242.884C255.05 230.503 238.195 192.172 228.746 183.356C219.298 174.539 200.907 222.691 203.043 234.889C206.083 252.269 219.184 256.649 226.844 257.091Z" fill="#00A86B"/>
<path d="M241.715 233.277L227.609 247.302L229.031 283.035H224.36C224.303 282.788 224.48 258.172 224.632 229.46L213.818 219.089C214.64 219.089 213.186 217.686 213.022 217.547L224.682 225.624C224.777 207.681 224.866 193.234 224.866 193.234L225.921 191.913L226.509 211.101L236.482 203.921C236.336 204.06 234.864 205.463 235.686 205.463L226.61 214.488L227.457 242.132L242.852 231.053C242.644 231.268 240.533 233.277 241.715 233.277Z" stroke="#263238" stroke-miterlimit="10"/>
<path d="M268.771 268.726C268.771 268.726 279.919 267.924 285.481 257.35C291.485 245.917 276.841 218.798 269.358 216.789C261.142 214.57 248.174 236.242 250.828 253.078C252.648 264.568 263.62 268.436 268.771 268.726Z" fill="#00A86B"/>
<path d="M277.138 247.997L269.365 254.171C269.125 239.673 268.922 228.095 268.922 228.095L267.968 227.008L267.614 241.816V242.138L261.016 236.962C261.016 236.962 262.072 238.036 261.528 238.043L267.532 244.571L267.128 261.597L257.161 253.754C257.161 253.754 258.652 255.277 257.888 255.284L267.033 265.231L266.982 267.197L266.925 269.314L266.616 282.744L269.839 282.706C269.763 278.39 269.693 273.858 269.624 269.333C269.561 265.478 269.485 261.616 269.434 257.907C269.434 257.628 269.434 257.369 269.434 257.098L276.576 249.28C275.919 249.286 277.138 247.997 277.138 247.997Z" stroke="#263238" stroke-miterlimit="10"/>
<path d="M254.886 277.037C253.849 276.203 251.985 276.222 250.348 276.291C250.468 275.248 250.904 274.218 251.03 273.169C251.131 272.628 251.077 272.069 250.874 271.558C250.672 271.046 250.33 270.601 249.887 270.275C248.092 269.011 244.932 269.504 242.454 270.224C242.796 267.772 240.185 265.383 236.69 265.004C233.195 264.625 229.309 266.331 228.285 268.726C226.869 267.374 224.044 266.83 221.687 267.462C219.329 268.094 217.655 269.857 217.775 271.558C215.967 271.437 213.951 271.355 212.453 272.133C210.254 273.283 210.406 275.609 208.712 277.113C208.165 277.008 207.599 277.054 207.076 277.246C206.553 277.437 206.092 277.767 205.741 278.2C205.166 278.952 205.065 279.811 204.718 280.62C204.01 282.238 201.659 282.441 199.415 283.148L255.562 283.616C256.782 283.224 257.824 282.39 257.774 281.486C257.723 280.583 256.213 279.849 255.044 280.298C255.448 280.317 256.093 277.998 254.886 277.037Z" fill="#00A86B"/>
<path d="M280.128 279.495C279.496 278.99 278.346 278.996 277.347 279.04C277.417 278.408 277.682 277.776 277.764 277.144C277.826 276.812 277.793 276.47 277.669 276.155C277.545 275.841 277.335 275.569 277.063 275.369C275.963 274.597 274.023 274.895 272.506 275.337C272.714 273.833 271.115 272.367 268.973 272.139C266.831 271.911 264.448 272.948 263.822 274.414C262.956 273.586 261.218 273.258 259.777 273.649C258.336 274.041 257.306 275.116 257.382 276.177C256.27 276.102 255.037 276.045 254.121 276.525C252.769 277.233 252.857 278.655 251.827 279.578C251.49 279.514 251.143 279.543 250.821 279.66C250.5 279.778 250.216 279.981 250 280.248C249.728 280.712 249.516 281.209 249.368 281.726C248.939 282.719 247.472 282.839 246.12 283.275L280.532 283.559C281.278 283.319 281.916 282.807 281.891 282.257C281.866 281.707 280.93 281.252 280.216 281.531C280.469 281.512 280.867 280.09 280.128 279.495Z" fill="#00A86B"/>
<path d="M141.132 170.318C139.581 169.254 137.768 168.634 135.89 168.526C134.012 168.419 132.14 168.826 130.477 169.706C128.814 170.585 127.423 171.902 126.455 173.515C125.487 175.128 124.978 176.975 124.984 178.856V178.919C124.67 178.517 124.275 178.186 123.824 177.947C123.373 177.709 122.876 177.568 122.367 177.535C121.858 177.503 121.347 177.578 120.869 177.757C120.391 177.935 119.956 178.213 119.593 178.572C119.377 176.506 118.377 174.602 116.799 173.252C115.221 171.902 113.185 171.208 111.111 171.313C109.037 171.418 107.082 172.315 105.649 173.818C104.216 175.321 103.414 177.316 103.408 179.393C103.069 179.154 102.676 179.005 102.264 178.96C101.852 178.915 101.436 178.975 101.054 179.135C100.671 179.295 100.336 179.549 100.079 179.874C99.8221 180.199 99.6518 180.583 99.5842 180.992H157.014C157.014 179.606 156.616 178.249 155.868 177.083C155.121 175.916 154.054 174.988 152.795 174.408C151.536 173.829 150.137 173.623 148.765 173.814C147.392 174.005 146.103 174.586 145.05 175.487C144.702 174.491 144.206 173.554 143.578 172.707" stroke="#263238" stroke-linecap="round" stroke-linejoin="round"/>
<path d="M239.825 94.7305C241.714 94.0707 243.733 93.8727 245.713 94.1528C247.694 94.4329 249.579 95.1831 251.21 96.3407C252.842 97.4983 254.173 99.0296 255.091 100.807C256.01 102.584 256.49 104.555 256.491 106.555V106.631C256.872 106.144 257.352 105.742 257.9 105.453C258.447 105.164 259.049 104.994 259.667 104.954C260.284 104.914 260.903 105.005 261.483 105.221C262.063 105.437 262.591 105.773 263.032 106.208C263.314 103.716 264.536 101.426 266.448 99.8035C268.36 98.1812 270.818 97.3489 273.323 97.4762C275.827 97.6035 278.188 98.6808 279.926 100.489C281.664 102.297 282.647 104.699 282.675 107.206C283.171 106.849 283.769 106.658 284.381 106.663C285.085 106.661 285.767 106.91 286.304 107.365C286.842 107.82 287.199 108.452 287.313 109.146H217.623C217.618 107.46 218.098 105.808 219.006 104.387C219.914 102.966 221.211 101.837 222.743 101.133C224.275 100.428 225.977 100.18 227.647 100.416C229.316 100.653 230.883 101.364 232.159 102.466C232.79 100.644 233.833 98.9923 235.205 97.6377" stroke="#263238" stroke-linecap="round" stroke-linejoin="round"/>
<path d="M25.9436 80.1819H95.6342C95.6392 78.4957 95.1592 76.8437 94.2514 75.4228C93.3435 74.0019 92.0463 72.8721 90.5142 72.168C88.9821 71.4639 87.2798 71.2152 85.6103 71.4517C83.9408 71.6882 82.3746 72.3997 81.0982 73.5016C80.13 70.7046 78.202 68.3411 75.6566 66.8305C73.1112 65.32 70.1129 64.7601 67.1939 65.2503C64.2749 65.7405 61.6239 67.249 59.7115 69.5081C57.7991 71.7672 56.7489 74.6308 56.7473 77.5907V77.6665C56.3659 77.1791 55.8859 76.7777 55.3386 76.4887C54.7913 76.1998 54.1891 76.0297 53.5715 75.9898C52.9539 75.9498 52.3348 76.0408 51.7549 76.2568C51.1749 76.4727 50.6471 76.8089 50.2061 77.2431C49.9239 74.7515 48.7024 72.4612 46.7904 70.8389C44.8784 69.2166 42.4198 68.3843 39.9155 68.5117C37.4113 68.639 35.0498 69.7163 33.3122 71.5241C31.5745 73.332 30.5916 75.7343 30.5635 78.2416C30.0667 77.8842 29.4691 77.6939 28.8571 77.6981C28.1562 77.7008 27.479 77.9518 26.9456 78.4065C26.4122 78.8612 26.0572 79.4902 25.9436 80.1819Z" fill="white" stroke="#263238" stroke-miterlimit="10"/>
<path d="M118.822 104.817L120.984 118.329" stroke="#00A86B" stroke-miterlimit="10"/>
<path d="M110.65 109.601L119.644 120.491" stroke="#00A86B" stroke-miterlimit="10"/>
<path d="M109.229 118.847L117.647 122.14" stroke="#00A86B" stroke-miterlimit="10"/>
<path d="M66.5181 142.364V131.955" stroke="#263238" stroke-linecap="round" stroke-linejoin="round"/>
<path d="M42.0091 142.364H66.5181V134.685H42.0091V142.364Z" fill="white" stroke="#263238" stroke-linecap="round" stroke-linejoin="round"/>
<path d="M42.009 142.364V131.955" stroke="#263238" stroke-linecap="round" stroke-linejoin="round"/>
<path d="M128.252 283.187H177.788V196.931H128.252V283.187Z" fill="white" stroke="#263238" stroke-linecap="round" stroke-linejoin="round"/>
<path d="M78.8735 283.187H128.41L128.41 164.952H78.8735L78.8735 283.187Z" fill="white" stroke="#263238" stroke-linecap="round" stroke-linejoin="round"/>
<path d="M29.1098 283.193H78.646L78.646 142.156H29.1098L29.1098 283.193Z" fill="white" stroke="#263238" stroke-linecap="round" stroke-linejoin="round"/>
<path d="M69.425 151.048V277.846" stroke="#00A86B" stroke-linecap="round" stroke-linejoin="round"/>
<path d="M58.5928 151.048V277.846" stroke="#00A86B" stroke-linecap="round" stroke-linejoin="round"/>
<path d="M47.7603 151.048V277.846" stroke="#00A86B" stroke-linecap="round" stroke-linejoin="round"/>
<path d="M36.9341 151.048V277.846" stroke="#00A86B" stroke-linecap="round" stroke-linejoin="round"/>
<path d="M120.188 171.057V182.857V194.65V206.449V218.242V230.048V241.847V253.641V265.44V277.239V277.467" stroke="#00A86B" stroke-linecap="round" stroke-linejoin="round"/>
<path d="M109.355 171.057V182.857V194.65V206.449V218.242V230.048V241.847V253.641V265.44V277.239V277.467" stroke="#00A86B" stroke-linecap="round" stroke-linejoin="round"/>
<path d="M98.5161 171.057V182.857V194.65V206.449V218.242V230.048V241.847V253.641V265.44V277.239V277.467" stroke="#00A86B" stroke-linecap="round" stroke-linejoin="round"/>
<path d="M87.6899 171.057V182.857V194.65V206.449V218.242V230.048V241.847V253.641V265.44V277.239V277.467" stroke="#00A86B" stroke-linecap="round" stroke-linejoin="round"/>
<path d="M120.187 171.057H118.064H107.939H97.8083H87.6899" stroke="#00A86B" stroke-linecap="round" stroke-linejoin="round"/>
<path d="M120.187 182.856H118.064H107.939H97.8083H87.6899" stroke="#00A86B" stroke-linecap="round" stroke-linejoin="round"/>
<path d="M120.187 194.65H118.064H107.939H97.8083H87.6899" stroke="#00A86B" stroke-linecap="round" stroke-linejoin="round"/>
<path d="M120.187 206.449H118.064H107.939H97.8083H87.6899" stroke="#00A86B" stroke-linecap="round" stroke-linejoin="round"/>
<path d="M120.187 218.242H118.064H107.939H97.8083H87.6899" stroke="#00A86B" stroke-linecap="round" stroke-linejoin="round"/>
<path d="M120.187 230.048H118.064H107.939H97.8083H87.6899" stroke="#00A86B" stroke-linecap="round" stroke-linejoin="round"/>
<path d="M120.187 241.847H118.064H107.939H97.8083H87.6899" stroke="#00A86B" stroke-linecap="round" stroke-linejoin="round"/>
<path d="M120.187 253.64H118.064H107.939H97.8083H87.6899" stroke="#00A86B" stroke-linecap="round" stroke-linejoin="round"/>
<path d="M120.187 265.44H118.064H107.939H97.8083H87.6899" stroke="#00A86B" stroke-linecap="round" stroke-linejoin="round"/>
<path d="M120.187 277.239H118.064H107.939H97.8083H87.6899" stroke="#00A86B" stroke-linecap="round" stroke-linejoin="round"/>
<path d="M172.94 204.047H135.494" stroke="#00A86B" stroke-linecap="round" stroke-linejoin="round"/>
<path d="M172.94 215.847H135.494" stroke="#00A86B" stroke-linecap="round" stroke-linejoin="round"/>
<path d="M172.94 227.64H135.494" stroke="#00A86B" stroke-linecap="round" stroke-linejoin="round"/>
<path d="M172.94 239.439H135.494" stroke="#00A86B" stroke-linecap="round" stroke-linejoin="round"/>
<path d="M172.94 251.239H135.494" stroke="#00A86B" stroke-linecap="round" stroke-linejoin="round"/>
<path d="M172.94 263.038H135.494" stroke="#00A86B" stroke-linecap="round" stroke-linejoin="round"/>
<path d="M172.94 274.832H135.494" stroke="#00A86B" stroke-linecap="round" stroke-linejoin="round"/>
<path d="M287.314 283.56H264.663H262.027H25.9436" stroke="#263238" stroke-linecap="round" stroke-linejoin="round"/>
<path d="M112.003 282.826C111.668 282.984 109.235 283.073 106.132 283.123C99.8117 283.231 90.7173 283.18 90.7173 283.18C90.7173 283.18 90.2243 283.18 90.0347 280.716C89.8451 278.251 91.0585 276.292 91.1976 275.261C91.8296 270.534 90.218 268.562 90.1927 268.215C90.1674 267.867 99.0407 267.671 99.0407 267.671L101.948 267.475L101.316 271.634C101.276 271.87 101.255 272.108 101.253 272.348C101.193 273.819 101.653 275.263 102.554 276.427C103.455 277.592 104.737 278.401 106.176 278.712H106.309C106.517 278.516 110.101 276.86 111.567 279.148C112.37 280.393 112.003 282.826 112.003 282.826Z" fill="#263238"/>
<mask id="mask0_43_5310" style="mask-type:luminance" maskUnits="userSpaceOnUse" x="90" y="267" width="23" height="17">
<path d="M112.003 282.826C111.668 282.984 109.235 283.073 106.132 283.123C99.8117 283.231 90.7173 283.18 90.7173 283.18C90.7173 283.18 90.2243 283.18 90.0347 280.716C89.8451 278.251 91.0585 276.292 91.1976 275.261C91.8296 270.534 90.218 268.562 90.1927 268.215C90.1674 267.867 99.0407 267.671 99.0407 267.671L101.948 267.475L101.316 271.634C101.276 271.87 101.255 272.108 101.253 272.348C101.193 273.819 101.653 275.263 102.554 276.427C103.455 277.592 104.737 278.401 106.176 278.712H106.309C106.517 278.516 110.101 276.86 111.567 279.148C112.37 280.393 112.003 282.826 112.003 282.826Z" fill="white"/>
</mask>
<g mask="url(#mask0_43_5310)">
<path opacity="0.2" d="M112.003 282.826C111.668 282.984 109.235 283.073 106.132 283.123C99.8117 283.231 90.7173 283.18 90.7173 283.18C90.7173 283.18 90.2243 283.18 90.0347 280.716C89.8451 278.251 91.0585 276.292 91.1976 275.261C91.8296 270.534 90.218 268.562 90.1927 268.215C90.1674 267.867 99.0407 267.671 99.0407 267.671L101.948 267.475L101.316 271.634C101.276 271.87 101.255 272.108 101.253 272.348C101.193 273.819 101.653 275.263 102.554 276.427C103.455 277.592 104.737 278.401 106.176 278.712H106.309C106.517 278.516 110.101 276.86 111.567 279.148C112.37 280.393 112.003 282.826 112.003 282.826Z" fill="white"/>
<path opacity="0.3" d="M106.132 283.136C99.8117 283.244 90.7173 283.193 90.7173 283.193C90.7173 283.193 90.2243 283.193 90.0347 280.728C89.8451 278.263 91.0585 276.304 91.1976 275.274C91.8296 270.547 90.218 268.575 90.1927 268.227C90.1674 267.88 99.0407 267.684 99.0407 267.684L101.948 267.488L101.316 271.646C101.276 271.882 101.255 272.121 101.253 272.361C99.2493 274.016 97.6566 275.35 97.6566 275.35C97.6566 275.35 105.778 278.03 106.132 283.136Z" fill="black"/>
</g>
<path d="M112.003 282.826C111.668 282.984 109.235 283.073 106.132 283.123C99.8117 283.231 90.7173 283.18 90.7173 283.18C90.7173 283.18 90.2243 283.18 90.0347 280.716C89.8451 278.251 91.0585 276.292 91.1976 275.261C91.8296 270.534 90.218 268.562 90.1927 268.215C90.1674 267.867 99.0407 267.671 99.0407 267.671L101.948 267.475L101.316 271.634C101.276 271.87 101.255 272.108 101.253 272.348C101.193 273.819 101.653 275.263 102.554 276.427C103.455 277.592 104.737 278.401 106.176 278.712H106.309C106.517 278.516 110.101 276.86 111.567 279.148C112.37 280.393 112.003 282.826 112.003 282.826Z" stroke="#263238" stroke-linecap="round" stroke-linejoin="round"/>
<path d="M103.869 262.04C104.166 263.626 104.906 264.075 104.425 264.82C104.356 264.934 104.286 265.067 104.217 265.206C103.844 265.977 103.446 267.064 101.979 267.475C100.254 267.962 91.9939 268.41 90.2116 268.189C88.4294 267.968 87.4182 266.293 87.3171 264.877C87.216 263.462 87.987 262.577 87.8669 260.991C87.7468 259.404 86.5081 258.943 86.426 257.887C86.3438 256.832 87.3676 255.296 87.355 254.241C87.355 252.016 87.3929 254.443 87.8353 241.797C88.0818 234.586 89.8261 233.018 87.8353 224.84C87.1148 221.889 79.3792 168.453 79.3792 168.453L103.237 169.881C103.237 169.881 103.616 178.982 104.046 189.733C104.59 203.409 105.215 219.753 105.234 223.431C105.272 230.901 104.602 241.367 104.04 250.657C103.806 254.62 103.408 257.35 104.04 258.873C104.115 259.032 104.16 259.204 104.173 259.379C104.28 260.384 103.566 260.453 103.869 262.04Z" fill="#00A86B"/>
<mask id="mask1_43_5310" style="mask-type:luminance" maskUnits="userSpaceOnUse" x="79" y="168" width="27" height="101">
<path d="M103.869 262.04C104.166 263.626 104.906 264.075 104.425 264.82C104.356 264.934 104.286 265.067 104.217 265.206C103.844 265.977 103.446 267.064 101.979 267.475C100.254 267.962 91.9939 268.41 90.2116 268.189C88.4294 267.968 87.4182 266.293 87.3171 264.877C87.216 263.462 87.987 262.577 87.8669 260.991C87.7468 259.404 86.5081 258.943 86.426 257.887C86.3438 256.832 87.3676 255.296 87.355 254.241C87.355 252.016 87.3929 254.443 87.8353 241.797C88.0818 234.586 89.8261 233.018 87.8353 224.84C87.1148 221.889 79.3792 168.453 79.3792 168.453L103.237 169.881C103.237 169.881 103.616 178.982 104.046 189.733C104.59 203.409 105.215 219.753 105.234 223.431C105.272 230.901 104.602 241.367 104.04 250.657C103.806 254.62 103.408 257.35 104.04 258.873C104.115 259.032 104.16 259.204 104.173 259.379C104.28 260.384 103.566 260.453 103.869 262.04Z" fill="white"/>
</mask>
<g mask="url(#mask1_43_5310)">
<path opacity="0.3" d="M104.217 265.206C103.844 265.977 103.446 267.064 101.979 267.475C100.254 267.962 91.9939 268.41 90.2116 268.189C88.4294 267.968 87.4182 266.293 87.3171 264.877C87.216 263.462 87.987 262.577 87.8669 260.991C87.7468 259.404 86.5081 258.943 86.426 257.887C86.3438 256.832 87.3676 255.296 87.355 254.241C87.355 252.016 87.3929 254.443 87.8353 241.797C88.0818 234.586 89.8261 233.018 87.8353 224.84C87.1148 221.889 79.3792 168.453 79.3792 168.453L103.237 169.881C103.237 169.881 103.616 178.982 104.046 189.733C101.171 201.69 97.8336 214.848 96.5822 217.06L98.554 220.505C98.554 220.505 93.8393 231.445 93.8393 232.765C93.8393 234.086 95.4319 246.442 95.9818 249.008C96.5316 251.574 93.8393 249.747 93.8393 251.909C93.8393 253.9 93.6244 263.588 104.217 265.206Z" fill="black"/>
</g>
<path d="M103.869 262.04C104.166 263.626 104.906 264.075 104.425 264.82C104.356 264.934 104.286 265.067 104.217 265.206C103.844 265.977 103.446 267.064 101.979 267.475C100.254 267.962 91.9939 268.41 90.2116 268.189C88.4294 267.968 87.4182 266.293 87.3171 264.877C87.216 263.462 87.987 262.577 87.8669 260.991C87.7468 259.404 86.5081 258.943 86.426 257.887C86.3438 256.832 87.3676 255.296 87.355 254.241C87.355 252.016 87.3929 254.443 87.8353 241.797C88.0818 234.586 89.8261 233.018 87.8353 224.84C87.1148 221.889 79.3792 168.453 79.3792 168.453L103.237 169.881C103.237 169.881 103.616 178.982 104.046 189.733C104.59 203.409 105.215 219.753 105.234 223.431C105.272 230.901 104.602 241.367 104.04 250.657C103.806 254.62 103.408 257.35 104.04 258.873C104.115 259.032 104.16 259.204 104.173 259.379C104.28 260.384 103.566 260.453 103.869 262.04Z" stroke="#263238" stroke-linecap="round" stroke-linejoin="round"/>
<path d="M102.043 187.154C102.043 187.154 99.1165 189.682 96.6201 189.227" stroke="#263238" stroke-linecap="round" stroke-linejoin="round"/>
<path d="M101.752 191.932C101.752 191.932 96.8225 190.744 96.26 189.745" stroke="#263238" stroke-linecap="round" stroke-linejoin="round"/>
<path d="M95.4319 214.45C95.4319 214.45 98.0926 221.402 101.05 223.083" stroke="#263238" stroke-linecap="round" stroke-linejoin="round"/>
<path d="M101.183 260.593C101.183 260.593 95.2739 262.419 92.3351 261.085C89.3963 259.752 94.6545 264.138 100.178 263.753" stroke="#263238" stroke-linecap="round" stroke-linejoin="round"/>
<path d="M92.8154 229.075C92.8154 229.075 92.866 247.561 97.6882 251.239" stroke="#263238" stroke-linecap="round" stroke-linejoin="round"/>
<path d="M97.7705 270.527C98.9107 270.073 100.121 269.818 101.348 269.775" stroke="#263238" stroke-linecap="round" stroke-linejoin="round"/>
<path d="M97.8779 272.923C97.8779 272.923 99.5906 272.291 100.829 272.038" stroke="#263238" stroke-linecap="round" stroke-linejoin="round"/>
<path d="M98.2002 275.217L100.962 274.389" stroke="#263238" stroke-linecap="round" stroke-linejoin="round"/>
<path d="M99.5464 277.094L101.815 276.203" stroke="#263238" stroke-linecap="round" stroke-linejoin="round"/>
<path d="M102.119 278.705L103.44 277.688" stroke="#263238" stroke-linecap="round" stroke-linejoin="round"/>
<path d="M98.3393 268.246C98.3393 268.246 98.1181 274.566 100.115 276.645C102.112 278.725 104.23 278.769 104.046 279.565" stroke="#263238" stroke-linecap="round" stroke-linejoin="round"/>
<path d="M80.1186 267.507C80.1186 267.507 71.1822 267.69 71.1506 268.044C71.119 268.398 72.4145 270.363 70.942 275.084C70.626 276.114 69.046 278.067 68.8437 280.526C68.6415 282.984 69.1029 282.984 69.1029 282.984C69.1029 282.984 89.3269 283.098 90.4455 282.637C90.4455 282.637 91.2292 280.21 90.6541 279.003C89.5165 276.607 85.339 278.541 85.4717 278.567H85.3389C82.2232 277.878 80.6558 274.775 81.7176 271.488L83.0637 267.336L80.1186 267.507Z" fill="#263238"/>
<mask id="mask2_43_5310" style="mask-type:luminance" maskUnits="userSpaceOnUse" x="68" y="267" width="23" height="16">
<path d="M80.1186 267.507C80.1186 267.507 71.1822 267.69 71.1506 268.044C71.119 268.398 72.4145 270.363 70.942 275.084C70.626 276.114 69.046 278.067 68.8437 280.526C68.6415 282.984 69.1029 282.984 69.1029 282.984C69.1029 282.984 89.3269 283.098 90.4455 282.637C90.4455 282.637 91.2292 280.21 90.6541 279.003C89.5165 276.607 85.339 278.541 85.4717 278.567H85.3389C82.2232 277.878 80.6558 274.775 81.7176 271.488L83.0637 267.336L80.1186 267.507Z" fill="white"/>
</mask>
<g mask="url(#mask2_43_5310)">
<path opacity="0.25" d="M80.1186 267.507C80.1186 267.507 71.1822 267.69 71.1506 268.044C71.119 268.398 72.4145 270.363 70.942 275.084C70.626 276.114 69.046 278.067 68.8437 280.526C68.6415 282.984 69.1029 282.984 69.1029 282.984C69.1029 282.984 89.3269 283.098 90.4455 282.637C90.4455 282.637 91.2292 280.21 90.6541 279.003C89.5165 276.607 85.339 278.541 85.4717 278.567H85.3389C82.2232 277.878 80.6558 274.775 81.7176 271.488L83.0637 267.336L80.1186 267.507Z" fill="white"/>
</g>
<path d="M80.1186 267.507C80.1186 267.507 71.1822 267.69 71.1506 268.044C71.119 268.398 72.4145 270.363 70.942 275.084C70.626 276.114 69.046 278.067 68.8437 280.526C68.6415 282.984 69.1029 282.984 69.1029 282.984C69.1029 282.984 89.3269 283.098 90.4455 282.637C90.4455 282.637 91.2292 280.21 90.6541 279.003C89.5165 276.607 85.339 278.541 85.4717 278.567H85.3389C82.2232 277.878 80.6558 274.775 81.7176 271.488L83.0637 267.336L80.1186 267.507Z" stroke="#263238" stroke-linecap="round" stroke-linejoin="round"/>
<path d="M101.12 169.881L77.5084 168.453C77.5084 168.453 76.0611 221.8 76.2444 224.745C76.8321 232.911 74.8224 234.472 73.3308 241.677C70.7144 254.317 71.0683 251.877 70.7144 254.095C70.5437 255.151 69.2544 256.687 69.1533 257.742C69.0522 258.798 70.2151 259.259 70.0634 260.839C69.9117 262.419 68.9764 263.316 68.8436 264.719C68.7109 266.122 69.4251 267.804 71.1694 268.025C72.9137 268.246 81.2814 267.797 83.0636 267.311C84.8459 266.824 85.3578 265.415 85.9645 264.662C86.5712 263.91 85.914 263.468 85.8824 261.882C85.8508 260.295 86.5649 260.251 86.6597 259.215C86.677 259.045 86.662 258.873 86.6155 258.709C86.23 257.199 87.1021 254.475 88.0122 250.493C90.161 241.222 92.6448 230.768 93.8835 223.317C94.5155 219.601 96.7338 202.954 98.554 189.189C98.554 189.189 100.298 186.377 101.183 180.929" fill="#00A86B"/>
<mask id="mask3_43_5310" style="mask-type:luminance" maskUnits="userSpaceOnUse" x="68" y="168" width="34" height="101">
<path d="M101.12 169.881L77.5084 168.453C77.5084 168.453 76.0611 221.8 76.2444 224.745C76.8321 232.911 74.8224 234.472 73.3308 241.677C70.7144 254.317 71.0683 251.877 70.7144 254.095C70.5437 255.151 69.2544 256.687 69.1533 257.742C69.0522 258.798 70.2151 259.259 70.0634 260.839C69.9117 262.419 68.9764 263.316 68.8436 264.719C68.7109 266.122 69.4251 267.804 71.1694 268.025C72.9137 268.246 81.2814 267.797 83.0636 267.311C84.8459 266.824 85.3578 265.415 85.9645 264.662C86.5712 263.91 85.914 263.468 85.8824 261.882C85.8508 260.295 86.5649 260.251 86.6597 259.215C86.677 259.045 86.662 258.873 86.6155 258.709C86.23 257.199 87.1021 254.475 88.0122 250.493C90.161 241.222 92.6448 230.768 93.8835 223.317C94.5155 219.601 96.7338 202.954 98.554 189.189C98.554 189.189 100.298 186.377 101.183 180.929" fill="white"/>
</mask>
<g mask="url(#mask3_43_5310)">
<path opacity="0.3" d="M77.4324 170.305L77.2239 178.274C81.22 178.599 85.2358 178.599 89.2319 178.274C97.0308 177.579 101.777 174.122 101.777 174.122L101.145 169.881C101.145 169.881 92.2971 172.264 87.9426 171.929C83.5881 171.594 79.4169 171.07 77.4324 170.305Z" fill="black"/>
</g>
<path d="M101.12 169.881L77.5084 168.453C77.5084 168.453 76.0611 221.8 76.2444 224.745C76.8321 232.911 74.8224 234.472 73.3308 241.677C70.7144 254.317 71.0683 251.877 70.7144 254.095C70.5437 255.151 69.2544 256.687 69.1533 257.742C69.0522 258.798 70.2151 259.259 70.0634 260.839C69.9117 262.419 68.9764 263.316 68.8436 264.719C68.7109 266.122 69.4251 267.804 71.1694 268.025C72.9137 268.246 81.2814 267.797 83.0636 267.311C84.8459 266.824 85.3578 265.415 85.9645 264.662C86.5712 263.91 85.914 263.468 85.8824 261.882C85.8508 260.295 86.5649 260.251 86.6597 259.215C86.677 259.045 86.662 258.873 86.6155 258.709C86.23 257.199 87.1021 254.475 88.0122 250.493C90.161 241.222 92.6448 230.768 93.8835 223.317C94.5155 219.601 96.7338 202.954 98.554 189.189C98.554 189.189 100.298 186.377 101.183 180.929" stroke="#263238" stroke-linecap="round" stroke-linejoin="round"/>
<path d="M89.4532 234.402C89.4532 234.402 81.2877 248.306 73.2297 252.85" stroke="#263238" stroke-linecap="round" stroke-linejoin="round"/>
<path d="M73.0908 260.593L81.8567 261.699C82.4887 261.781 83.3039 262.034 83.2407 262.703C83.1775 263.373 82.5013 263.677 81.9199 263.885C79.9681 264.613 77.8464 264.756 75.8147 264.296" stroke="#263238" stroke-linecap="round" stroke-linejoin="round"/>
<path d="M73.3499 256.377C76.4988 258.182 80.0537 259.161 83.6831 259.221" stroke="#263238" stroke-linecap="round" stroke-linejoin="round"/>
<path d="M78.8483 231.072C78.8483 231.072 83.2722 231.243 85.5474 231.04C83.86 233.353 81.1234 234.358 78.4817 234.491" stroke="#263238" stroke-linecap="round" stroke-linejoin="round"/>
<path d="M82.1601 175.064C82.1601 175.064 81.5281 197.778 81.3005 207.226C81.073 216.675 80.6685 227.691 80.6685 227.691C80.454 228.028 80.3084 228.404 80.2401 228.798C80.1717 229.192 80.182 229.595 80.2704 229.985L80.6243 231.148L80.4347 234.428C80.1808 234.726 79.9963 235.077 79.8947 235.455C79.793 235.833 79.7767 236.229 79.8469 236.614C80.1503 237.809 77.6981 246.132 77.6981 246.132L77.2747 246.682C76.8416 247.201 76.5518 247.824 76.4343 248.489C76.3168 249.154 76.3755 249.839 76.6048 250.474L75.7263 257.603C75.254 257.99 74.9376 258.534 74.8353 259.136C74.7331 259.738 74.852 260.356 75.1701 260.877L74.3485 264.593C73.9317 264.946 73.653 265.436 73.5617 265.975C73.4703 266.513 73.5722 267.067 73.8493 267.538L73.9883 267.747" stroke="#263238" stroke-linecap="round" stroke-linejoin="round"/>
<path d="M123.057 133.175C122.425 134.559 117.04 138.231 117.04 138.231C117.035 137.624 117.165 137.024 117.419 136.474C117.805 135.88 118.051 135.311 118.298 134.957C118.361 133.997 118.046 133.051 117.419 132.322C116.686 131.506 116.111 133.541 115.789 134.894C115.466 136.246 113.355 138.307 113.45 139.318C113.634 140.481 113.867 141.625 114.164 142.762C114.164 142.762 105.158 145.922 104.166 144.026C102.065 139.953 99.7444 135.997 97.2142 132.176C95.097 135.134 96.7655 139.217 97.96 144.235C99.1544 149.253 102.833 156.281 102.833 156.281C109.418 153.121 116.901 144.905 116.901 144.905C116.901 144.905 118.658 144.121 120.832 143.375C123.006 142.63 122.69 141.991 123.038 139.855C123.385 137.719 125.212 134.799 125.104 133.699C124.997 132.6 123.701 131.797 123.057 133.175Z" fill="white" stroke="#263238" stroke-linecap="round" stroke-linejoin="round"/>
<path d="M101.752 143.849C101.67 148.425 102.574 163.941 103.553 170.096L76.7501 169.42V168.971C78.7156 161.691 77.439 153.803 74.3359 146.959C72.6927 143.325 71.9595 138.68 71.1127 134.281C68.9575 123.082 74.3675 119.612 78.8863 119.182C80.6306 119.1 80.7823 117.918 82.0463 118.013C82.9187 118.119 83.8038 118.011 84.6248 117.697C85.1873 119.991 88.3031 126.729 89.3711 127.5C89.8899 127.909 90.5197 128.153 91.1789 128.201C91.8382 128.248 92.4964 128.096 93.0683 127.765C94.1427 127.013 94.4398 125.578 94.6863 124.289C94.7973 123.59 94.9969 122.909 95.2803 122.26C96.8603 123.05 99.6159 123.986 101.664 127.67C104.192 135.804 102.801 130.59 104.748 142.522C105.083 144.349 101.752 143.849 101.752 143.849Z" fill="white" stroke="#263238" stroke-linecap="round" stroke-linejoin="round"/>
<path d="M97.5365 122.677L94.9453 121.774C96.7023 127.809 95.1792 134.666 90.7362 131.955C86.2933 129.244 84.53 121.451 83.2028 118.051C82.5076 117.836 79.6825 117.735 78.2163 118.86C79.7457 121.66 83.9043 127.221 83.4176 131.74C82.8615 136.796 78.8862 141.283 71.4602 136.202C72.4714 143.862 75.682 149.386 76.3013 152.002C78.5639 161.482 77.0534 162.778 75.998 172.131C86.742 177.611 99.7422 174.887 105.437 173.218C103.699 163.688 104.463 139.672 97.5365 122.677Z" fill="#00A86B"/>
<mask id="mask4_43_5310" style="mask-type:luminance" maskUnits="userSpaceOnUse" x="71" y="117" width="35" height="59">
<path d="M97.5365 122.677L94.9453 121.774C96.7023 127.809 95.1792 134.666 90.7362 131.955C86.2933 129.244 84.53 121.451 83.2028 118.051C82.5076 117.836 79.6825 117.735 78.2163 118.86C79.7457 121.66 83.9043 127.221 83.4176 131.74C82.8615 136.796 78.8862 141.283 71.4602 136.202C72.4714 143.862 75.682 149.386 76.3013 152.002C78.5639 161.482 77.0534 162.778 75.998 172.131C86.742 177.611 99.7422 174.887 105.437 173.218C103.699 163.688 104.463 139.672 97.5365 122.677Z" fill="white"/>
</mask>
<g mask="url(#mask4_43_5310)">
<path opacity="0.3" d="M81.1614 162.91C81.1614 162.91 98.6867 170.558 101.183 163.132C96.583 164.131 91.8446 164.325 87.178 163.707L81.1614 162.91Z" fill="black"/>
<path opacity="0.3" d="M74.9487 146.365L87.6835 136.253C87.6835 136.253 90.2115 143.205 83.4365 147.193C78.8545 149.891 74.9487 146.365 74.9487 146.365Z" fill="black"/>
</g>
<path d="M97.5365 122.677L94.9453 121.774C96.7023 127.809 95.1792 134.666 90.7362 131.955C86.2933 129.244 84.53 121.451 83.2028 118.051C82.5076 117.836 79.6825 117.735 78.2163 118.86C79.7457 121.66 83.9043 127.221 83.4176 131.74C82.8615 136.796 78.8862 141.283 71.4602 136.202C72.4714 143.862 75.682 149.386 76.3013 152.002C78.5639 161.482 77.0534 162.778 75.998 172.131C86.742 177.611 99.7422 174.887 105.437 173.218C103.699 163.688 104.463 139.672 97.5365 122.677Z" stroke="#263238" stroke-linecap="round" stroke-linejoin="round"/>
<path d="M101.183 162.885C101.074 163.361 100.857 163.806 100.549 164.185C100.241 164.564 99.8505 164.867 99.4072 165.072" stroke="#263238" stroke-linecap="round" stroke-linejoin="round"/>
<path d="M96.5822 165.755C91.2518 166.24 85.895 165.169 81.1614 162.67" stroke="#263238" stroke-linecap="round" stroke-linejoin="round"/>
<path d="M121.142 122.924L115.656 137.555C115.559 137.816 115.522 138.095 115.55 138.373C115.577 138.65 115.667 138.917 115.814 139.154L116.831 140.784C117.331 141.587 119.094 141.827 119.852 141.309C120.13 141.123 120.349 140.862 120.484 140.557L125.894 125.939C126.034 125.604 126.072 125.236 126.002 124.88C125.933 124.525 125.759 124.198 125.502 123.941L123.796 122.292C123.642 122.137 123.457 122.016 123.253 121.937C123.05 121.857 122.832 121.82 122.614 121.828C122.395 121.837 122.181 121.89 121.984 121.985C121.788 122.08 121.613 122.215 121.47 122.38C121.328 122.54 121.217 122.724 121.142 122.924Z" fill="#263238"/>
<path d="M71.4475 126.861C71.5784 129.045 72.1052 131.186 73.0022 133.181C75.6377 139.451 85.6991 155.055 87.9048 156.11C90.1105 157.166 112.654 145.031 114.284 143.369C114.748 142.851 115.06 142.216 115.187 141.533C115.315 140.85 115.251 140.145 115.005 139.495C115.005 139.495 114.973 141.05 116.301 140.759C117.135 140.576 116.446 137.997 116.446 137.997C116.446 137.997 117.975 136.916 116.515 134.919C116.515 134.919 118.576 134.919 118.411 133.365C118.355 132.733 112.287 132.65 111.358 134.401C110.227 136.525 109.102 142.061 109.102 142.061C109.102 142.061 94.4144 145.853 91.3682 146.415L83.4239 128.991" fill="white"/>
<path d="M71.4475 126.861C71.5784 129.045 72.1052 131.186 73.0022 133.181C75.6377 139.451 85.6991 155.055 87.9048 156.11C90.1105 157.166 112.654 145.031 114.284 143.369C114.748 142.851 115.06 142.216 115.187 141.533C115.315 140.85 115.251 140.145 115.005 139.495C115.005 139.495 114.973 141.05 116.301 140.759C117.135 140.576 116.446 137.997 116.446 137.997C116.446 137.997 117.975 136.916 116.515 134.919C116.515 134.919 118.576 134.919 118.411 133.365C118.355 132.733 112.287 132.65 111.358 134.401C110.227 136.525 109.102 142.061 109.102 142.061C109.102 142.061 94.4144 145.853 91.3682 146.415L83.4239 128.991" stroke="#263238" stroke-linecap="round" stroke-linejoin="round"/>
<path d="M114.518 144.311C114.976 143.157 115.766 142.165 116.787 141.46C117.975 140.898 119.612 140.721 120.908 140.474C120.908 140.474 121.919 136.19 122.469 136.31C124.144 136.657 122.835 140.595 122.835 140.595" fill="white"/>
<path d="M114.518 144.311C114.976 143.157 115.766 142.165 116.787 141.46C117.975 140.898 119.612 140.721 120.908 140.474C120.908 140.474 121.919 136.19 122.469 136.31C124.144 136.657 122.835 140.595 122.835 140.595" stroke="#263238" stroke-linecap="round" stroke-linejoin="round"/>
<path d="M124.852 134.768C124.635 134.552 124.346 134.424 124.04 134.411C123.735 134.399 123.436 134.501 123.202 134.698C122.387 135.438 121.148 137.53 119.827 138.648" stroke="#263238" stroke-linecap="round" stroke-linejoin="round"/>
<path d="M113.128 139.267C113.488 138.471 116.048 137.125 116.553 138.85" stroke="#263238" stroke-linecap="round" stroke-linejoin="round"/>
<path d="M113.128 137.144C113.128 137.144 116.092 135.526 116.686 137.53" stroke="#263238" stroke-linecap="round" stroke-linejoin="round"/>
<path d="M113.501 135.248C113.501 135.248 114.733 135.008 115.005 134.982C115.985 134.888 117.053 134.761 117.584 134.761" stroke="#263238" stroke-linecap="round" stroke-linejoin="round"/>
<path d="M98.554 189.227C98.554 189.227 94.604 185.745 92.3098 185.081L98.554 189.227Z" fill="#00A86B"/>
<path d="M98.554 189.227C98.554 189.227 94.604 185.745 92.3098 185.081" stroke="#263238" stroke-linecap="round" stroke-linejoin="round"/>
<path d="M78.6082 270.565C79.7725 270.109 81.0051 269.851 82.2548 269.801" stroke="#263238" stroke-linecap="round" stroke-linejoin="round"/>
<path d="M78.5198 273.024C78.5198 273.024 80.2831 272.392 81.5407 272.12" stroke="#263238" stroke-linecap="round" stroke-linejoin="round"/>
<path d="M78.6396 275.331L81.471 274.497" stroke="#263238" stroke-linecap="round" stroke-linejoin="round"/>
<path d="M79.8215 277.239L82.1726 276.336" stroke="#263238" stroke-linecap="round" stroke-linejoin="round"/>
<path d="M82.2549 278.876L83.6642 277.846" stroke="#263238" stroke-linecap="round" stroke-linejoin="round"/>
<path d="M79.3791 268.246C79.3791 268.246 78.6081 274.693 80.4346 276.784C82.261 278.876 84.3593 278.94 84.1128 279.755" stroke="#263238" stroke-linecap="round" stroke-linejoin="round"/>
<path d="M94.699 121.515C94.699 121.515 97.366 131.911 93.0874 132.701C87.254 133.775 83.2029 118.032 83.2029 118.032C84.094 117.975 84.2014 117.603 84.9788 117.16C84.9788 117.16 91.4947 130.192 94.699 121.515Z" fill="#263238"/>
<path d="M76.9586 119.543C76.9586 119.543 70.8598 120.75 70.8409 129.819C70.8219 138.888 74.8414 146.441 74.8414 146.441C74.8414 146.441 79.6004 146.055 82.6087 143.849C88.9287 139.236 87.9049 136.645 87.9049 136.645L84.5932 130.084C84.5932 130.084 83.5062 125.882 78.7788 119.182L76.9586 119.543Z" fill="#263238"/>
<path d="M97.9094 123.038C101.234 132.473 101.385 136.006 101.986 140.361C101.986 140.361 105.241 139.729 105.74 139.008C105.74 139.008 104.16 131.285 102.454 127.291C101.366 124.757 99.9381 123.872 97.9094 123.038Z" fill="#263238"/>
<path d="M94.6926 112.325C94.6926 112.325 94.2186 120.971 94.2502 121.666C94.307 122.975 95.255 124.713 94.3829 125.692C93.902 126.145 93.296 126.444 92.6436 126.548C91.9911 126.653 91.3223 126.56 90.7236 126.28C89.538 125.69 88.5124 124.823 87.7342 123.752C86.2353 121.916 84.9346 119.927 83.8538 117.817C84.5769 117.122 85.1081 116.251 85.3958 115.289C85.3958 115.289 85.5665 114.556 85.5728 114.518C85.793 112.737 85.7696 110.934 85.5033 109.159C85.2009 106.963 84.6909 104.8 83.9802 102.7L94.6926 112.325Z" fill="white" stroke="#263238" stroke-linecap="round" stroke-linejoin="round"/>
<path d="M85.7056 120.579C87.2014 121.068 88.6521 121.685 90.0411 122.425L85.7056 120.579Z" fill="#263238"/>
<path d="M85.7056 120.579C87.2014 121.068 88.6521 121.685 90.0411 122.425" stroke="#263238" stroke-linecap="round" stroke-linejoin="round"/>
<path d="M84.3847 91.4125C84.3847 91.4125 79.0001 94.4903 81.7872 102.523C84.5743 110.556 90.7869 119.53 96.418 118.323C102.049 117.116 103.509 105.93 100.532 98.4719C97.5556 91.0143 89.9716 86.8874 84.3847 91.4125Z" fill="white" stroke="#263238" stroke-linecap="round" stroke-linejoin="round"/>
<path d="M100.444 106.239C100.482 106.871 100.223 107.453 99.8686 107.503C99.5147 107.554 99.1924 106.998 99.1545 106.34C99.1166 105.683 99.363 105.133 99.7296 105.108C100.096 105.083 100.406 105.576 100.444 106.239Z" fill="#263238"/>
<path d="M94.9518 105.98C94.9897 106.612 94.7369 107.187 94.3893 107.213C94.0417 107.238 93.7067 106.707 93.6688 106.056C93.6309 105.405 93.8837 104.843 94.2439 104.792C94.6042 104.741 94.9075 105.31 94.9518 105.98Z" fill="#263238"/>
<path d="M97.0182 92.7966C93.4095 89.2826 88.4988 88.1956 84.5678 91.3746C84.5678 91.3746 79.1895 94.4524 81.9766 102.491C82.6521 104.408 83.4696 106.271 84.4224 108.066L84.5236 108.154C84.5236 108.154 82.754 106.391 89.7755 102.51C92.0823 101.208 95.4888 93.0873 97.0182 92.7966Z" fill="#263238" stroke="#263238" stroke-linecap="round" stroke-linejoin="round"/>
<path d="M91.3809 95.432C91.3809 95.432 91.8738 89.8388 95.7669 89.6492C97.7957 89.5481 100.475 92.272 100.823 93.7067C101.041 94.6781 101.536 95.5654 102.249 96.2609C102.961 96.9564 103.86 97.4303 104.836 97.6251C104.836 97.6251 103.711 101.417 101.518 101.695C97.8968 102.138 96.0197 101.291 93.6813 98.0991C93.0283 97.1724 92.2922 96.3072 91.482 95.5142L91.3809 95.432Z" fill="#263238" stroke="#263238" stroke-linecap="round" stroke-linejoin="round"/>
<path d="M85.5854 106.176C85.5854 106.176 83.4556 101.79 81.5596 106.618C80.3777 109.627 85.1051 112.035 86.723 111.238" fill="white"/>
<path d="M85.5854 106.176C85.5854 106.176 83.4556 101.79 81.5596 106.618C80.3777 109.627 85.1051 112.035 86.723 111.238" stroke="#263238" stroke-linecap="round" stroke-linejoin="round"/>
<path d="M98.2634 103.515C97.9048 103.912 97.6457 104.388 97.5072 104.904C97.3688 105.421 97.355 105.963 97.467 106.486C97.6306 107.633 98.0194 108.737 98.611 109.734L95.906 110.6" stroke="#263238" stroke-linecap="round" stroke-linejoin="round"/>
<path d="M93.5359 112.578C93.9611 113.002 94.4985 113.297 95.085 113.427C95.6716 113.557 96.283 113.516 96.8476 113.311" stroke="#263238" stroke-linecap="round" stroke-linejoin="round"/>
<path d="M90.5088 103.439C90.5088 103.439 92.4048 101.341 94.6926 102.352" stroke="#263238" stroke-linecap="round" stroke-linejoin="round"/>
<path d="M99.3062 102.883C99.3062 102.883 101.79 102.106 101.474 104.299" stroke="#263238" stroke-linecap="round" stroke-linejoin="round"/>
<path d="M85.5413 108.578C85.3215 108.585 85.105 108.522 84.9232 108.398C84.7414 108.274 84.6037 108.096 84.5301 107.889C84.3468 107.491 84.2963 107.035 84.113 106.625C84.0373 106.417 83.8983 106.239 83.7156 106.116C83.533 105.992 83.316 105.929 83.0955 105.936" fill="#263238"/>
<path d="M85.5413 108.578C85.3215 108.585 85.105 108.522 84.9232 108.398C84.7414 108.274 84.6037 108.096 84.5301 107.889C84.3468 107.491 84.2963 107.035 84.113 106.625C84.0373 106.417 83.8983 106.239 83.7156 106.116C83.533 105.992 83.316 105.929 83.0955 105.936" stroke="#263238" stroke-linecap="round" stroke-linejoin="round"/>
<path d="M93.4222 91.2418C93.1538 90.1115 92.7284 89.0244 92.1582 88.0123C92.1582 88.0123 93.1884 87.7531 93.7572 87.6331C93.6308 88.7391 93.536 90.1295 93.4222 91.2418Z" fill="#263238" stroke="#263238" stroke-linecap="round" stroke-linejoin="round"/>
<path d="M94.5029 118.083L94.5472 119.979C94.1306 120.163 93.6702 120.224 93.22 120.156C90.7931 119.871 88.3472 114.468 88.1956 114.158L88.2461 114.215C91.1154 117.381 93.2452 118.064 94.5029 118.083Z" fill="#263238"/>
<path d="M176.492 136.272H192.463" stroke="#263238" stroke-linecap="round" stroke-linejoin="round"/>
<path d="M158.171 136.272H174.388" stroke="#263238" stroke-linecap="round" stroke-linejoin="round"/>
<path d="M149.531 136.272H154.518" stroke="#263238" stroke-linecap="round" stroke-linejoin="round"/>
<path d="M162.645 144.943H192.4" stroke="#263238" stroke-linecap="round" stroke-linejoin="round"/>
<path d="M154.518 144.943H158.171" stroke="#263238" stroke-linecap="round" stroke-linejoin="round"/>
<path d="M175.961 153.62H192.337" stroke="#263238" stroke-linecap="round" stroke-linejoin="round"/>
<path d="M159.504 153.62H173.541" stroke="#263238" stroke-linecap="round" stroke-linejoin="round"/>
<path d="M173.718 162.291H192.274" stroke="#263238" stroke-linecap="round" stroke-linejoin="round"/>
<path d="M164.491 162.291H171.082" stroke="#263238" stroke-linecap="round" stroke-linejoin="round"/>
<path d="M228.285 162.607H181.782L184.114 135.943H230.617L228.285 162.607Z" fill="white" stroke="#263238" stroke-linecap="round" stroke-linejoin="round"/>
<path d="M230.617 135.949H184.114" stroke="#263238" stroke-linecap="round" stroke-linejoin="round"/>
<path d="M228.285 162.607H181.782L197.677 147.515L205.754 154.398L215.209 147.382L228.285 162.607Z" fill="white" stroke="#263238" stroke-linecap="round" stroke-linejoin="round"/>
<path d="M230.617 135.943L215.209 147.382L205.754 154.398L197.677 147.515L184.114 135.943H230.617Z" fill="white" stroke="#263238" stroke-linecap="round" stroke-linejoin="round"/>
<path d="M145.082 136.272H133.409" stroke="#263238" stroke-linecap="round" stroke-linejoin="round"/>
<path d="M189.809 105.727C180.493 113.311 163.296 117.944 163.296 117.944L171.961 108.66C167.734 107.299 164.087 104.558 161.604 100.877C159.121 97.1952 157.946 92.7867 158.268 88.3579C158.589 83.9292 160.389 79.7367 163.378 76.4529C166.367 73.1691 170.372 70.9841 174.751 70.2483C179.13 69.5126 183.63 70.2687 187.528 72.3954C191.426 74.5222 194.496 77.8963 196.248 81.9767C197.999 86.0572 198.33 90.6076 197.186 94.8982C196.043 99.1889 193.491 102.971 189.941 105.639" fill="white"/>
<path d="M189.809 105.727C180.493 113.311 163.296 117.944 163.296 117.944L171.961 108.66C167.734 107.299 164.087 104.558 161.604 100.877C159.121 97.1952 157.946 92.7867 158.268 88.3579C158.589 83.9292 160.389 79.7367 163.378 76.4529C166.367 73.1691 170.372 70.9841 174.751 70.2483C179.13 69.5126 183.63 70.2687 187.528 72.3954C191.426 74.5222 194.496 77.8963 196.248 81.9767C197.999 86.0572 198.33 90.6076 197.186 94.8982C196.043 99.1889 193.491 102.971 189.941 105.639" stroke="#263238" stroke-linecap="round" stroke-linejoin="round"/>
<path d="M190.283 81.2561C193.504 81.2561 196.116 78.6444 196.116 75.4227C196.116 72.201 193.504 69.5894 190.283 69.5894C187.061 69.5894 184.449 72.201 184.449 75.4227C184.449 78.6444 187.061 81.2561 190.283 81.2561Z" fill="#00A86B" stroke="#263238" stroke-linecap="round" stroke-linejoin="round"/>
<path d="M186.901 74.1208L190.283 77.9255L197.974 68.8247L197.702 68.5403L190.283 74.9235L188.317 72.781L186.901 74.1208Z" fill="#263238" stroke="#263238" stroke-linecap="round" stroke-linejoin="round"/>
<path d="M167.783 84.9976H189.568" stroke="#263238" stroke-linecap="round" stroke-linejoin="round"/>
<path d="M167.29 90.6223H189.075" stroke="#263238" stroke-linecap="round" stroke-linejoin="round"/>
<path d="M166.804 96.2471H188.582" stroke="#263238" stroke-linecap="round" stroke-linejoin="round"/>
<path d="M235.407 35.3605V45.3335L262.691 24.3005L235.407 35.3605Z" fill="#00A86B" stroke="#263238" stroke-linecap="round" stroke-linejoin="round"/>
<path d="M235.408 35.3605L263.317 23.9592L225.207 27.9092L235.408 35.3605Z" fill="#00A86B" stroke="#263238" stroke-linecap="round" stroke-linejoin="round"/>
<path d="M238.688 37.4271L251.827 47.1473L263.317 23.9592L238.688 37.4271Z" fill="#00A86B" stroke="#263238" stroke-linecap="round" stroke-linejoin="round"/>
<path d="M238.688 37.4272L235.407 45.3336L242.397 40.1701L238.688 37.4272Z" fill="#00A86B" stroke="#263238" stroke-linecap="round" stroke-linejoin="round"/>
<path d="M130.856 121.009C130.925 120.807 131.001 120.611 131.071 120.415" stroke="#263238" stroke-linecap="round" stroke-linejoin="round"/>
<path d="M131.898 118.026C137.776 100.475 136.721 89.9273 146.264 72.9265C148.16 69.4884 157.76 53.2207 171.398 47.419C178.489 44.4043 183.002 48.9042 181.175 52.0895C177.099 59.1805 162.127 50.6801 177.099 42.2871C190.953 34.5262 220.442 49.7005 234.263 45.346" stroke="#263238" stroke-linecap="round" stroke-linejoin="round" stroke-dasharray="2 4"/>
<path d="M235.445 44.91C235.641 44.8278 235.831 44.7393 236.02 44.6445" stroke="#263238" stroke-linecap="round" stroke-linejoin="round"/>
</svg>
