<svg width="316" height="316" viewBox="0 0 316 316" fill="none" xmlns="http://www.w3.org/2000/svg">
<path d="M125.136 266.704C124.443 264.01 122.792 261.661 120.492 260.097C118.191 258.533 115.4 257.861 112.64 258.207C109.879 258.554 107.34 259.895 105.498 261.979C103.655 264.063 102.636 266.747 102.631 269.529C102.639 270.496 102.769 271.458 103.016 272.392C103.648 274.846 105.076 277.021 107.076 278.576C109.077 280.131 111.536 280.979 114.07 280.987C115.035 280.986 115.997 280.865 116.933 280.627C118.789 280.153 120.495 279.219 121.894 277.909C121.779 277.733 121.675 277.55 121.584 277.36C119.919 278.959 117.785 279.982 115.495 280.279C113.205 280.576 110.88 280.131 108.862 279.009L108.597 278.864C106.76 277.777 105.287 276.17 104.363 274.246C103.439 272.322 103.106 270.168 103.407 268.055C103.707 265.942 104.627 263.965 106.05 262.375C107.473 260.785 109.336 259.652 111.403 259.12C113.129 258.677 114.939 258.668 116.669 259.094C118.4 259.52 119.999 260.368 121.322 261.562C122.646 262.756 123.653 264.259 124.255 265.937C124.856 267.615 125.033 269.416 124.77 271.179C124.978 271.141 125.19 271.118 125.402 271.109C125.601 269.637 125.511 268.141 125.136 266.704Z" fill="#263238"/>
<path d="M121.578 277.379C120.435 278.467 119.125 279.365 117.697 280.039C117.423 280.16 117.14 280.259 116.85 280.336C116.558 280.41 116.26 280.461 115.959 280.488C112.799 280.817 108.571 279.224 108.571 279.224L108.849 279.015C109.634 278.399 110.481 277.868 111.377 277.429C112.009 277.258 113.141 276.468 112.641 274.762C110.79 273.259 109.509 271.167 109.014 268.834C108.622 267.102 107.75 263.746 111.27 262.35C111.552 262.244 111.838 262.153 112.129 262.078C112.433 262.002 112.73 261.945 113.008 261.901C116.8 261.421 117.615 264.789 118.108 266.489C118.796 268.776 118.68 271.23 117.78 273.441C118.171 275.173 119.524 275.337 120.175 275.167C120.491 275.12 120.811 275.109 121.129 275.135C121.09 275.625 121.133 276.119 121.256 276.595C121.324 276.86 121.417 277.118 121.534 277.366L121.578 277.379Z" fill="#263238"/>
<path d="M125.541 280.204C124.66 280.203 123.797 279.956 123.049 279.489C122.302 279.023 121.701 278.356 121.313 277.565C120.926 276.774 120.769 275.89 120.859 275.013C120.949 274.137 121.283 273.304 121.823 272.608C122.364 271.912 123.088 271.382 123.915 271.077C124.741 270.773 125.637 270.706 126.499 270.885C127.362 271.064 128.157 271.481 128.794 272.09C129.431 272.698 129.885 273.473 130.104 274.326C130.279 275.021 130.294 275.748 130.147 276.45C130 277.152 129.695 277.811 129.256 278.378C128.816 278.944 128.253 279.403 127.609 279.72C126.965 280.036 126.258 280.202 125.541 280.204ZM125.541 271.419C125.197 271.419 124.855 271.464 124.523 271.552C123.537 271.812 122.687 272.438 122.145 273.302C121.604 274.166 121.412 275.204 121.608 276.205C121.805 277.206 122.375 278.094 123.203 278.69C124.031 279.285 125.054 279.543 126.066 279.412C127.077 279.28 128 278.768 128.647 277.98C129.295 277.192 129.618 276.187 129.551 275.169C129.484 274.151 129.032 273.197 128.288 272.501C127.543 271.804 126.56 271.417 125.541 271.419Z" fill="#263238"/>
<path d="M125.269 275.306L124.504 273.498L125.534 273.233L125.717 275.192L127.203 273.896L127.771 274.787L125.983 275.59L127.664 276.582L126.994 277.404L125.679 275.938L125.231 277.834L124.257 277.442L125.25 275.761L123.291 275.919L123.36 274.863L125.269 275.306Z" fill="#263238"/>
<path d="M117.59 262.154C114.348 258.602 111.946 261.237 111.946 261.237C111.946 261.237 108.578 260.081 107.44 264.758C106.303 269.434 109.614 273.106 106.808 274.655C106.808 274.655 110.373 276.171 115.441 274.87C120.51 273.568 122.905 270.528 122.905 270.528C119.707 270.496 120.839 265.699 117.59 262.154Z" fill="#263238"/>
<path d="M297.508 158.367C297.922 156.51 297.646 154.566 296.734 152.897C295.821 151.228 294.332 149.948 292.546 149.295C290.759 148.641 288.796 148.66 287.022 149.346C285.248 150.033 283.784 151.341 282.902 153.026C282.602 153.614 282.375 154.236 282.226 154.878C281.923 156.203 281.971 157.583 282.363 158.884C282.755 160.185 283.478 161.362 284.462 162.299C285.446 163.236 286.657 163.901 287.976 164.229C289.295 164.556 290.676 164.536 291.984 164.168C291.975 164.025 291.975 163.882 291.984 163.739C290.752 164.105 289.445 164.147 288.192 163.859C286.344 163.444 284.729 162.33 283.686 160.749C283.642 160.693 283.602 160.634 283.566 160.572C283.048 159.752 282.698 158.837 282.536 157.88C282.377 156.919 282.405 155.936 282.618 154.985C283.058 153.077 284.236 151.42 285.894 150.378C287.552 149.336 289.555 148.993 291.466 149.424C292.076 149.56 292.666 149.772 293.223 150.056C294.169 150.545 294.998 151.232 295.655 152.071C296.311 152.91 296.779 153.881 297.026 154.917C297.273 155.952 297.294 157.03 297.087 158.074C296.88 159.119 296.45 160.107 295.827 160.97C295.972 161.012 296.114 161.064 296.25 161.128C296.846 160.299 297.273 159.361 297.508 158.367Z" fill="#263238"/>
<path d="M291.984 163.739C290.946 164.042 289.867 164.178 288.786 164.143C288.574 164.128 288.363 164.099 288.154 164.055C287.954 164.008 287.758 163.947 287.566 163.871C285.544 163.081 283.458 160.775 283.458 160.775L283.699 160.737C284.375 160.607 285.064 160.552 285.753 160.572C285.941 160.608 286.134 160.603 286.32 160.558C286.506 160.514 286.681 160.431 286.833 160.315C286.985 160.199 287.111 160.052 287.202 159.884C287.294 159.716 287.349 159.531 287.364 159.34C286.707 157.843 286.582 156.165 287.01 154.587C287.32 153.412 287.826 151.086 290.423 151.345C290.635 151.368 290.846 151.401 291.055 151.446C291.266 151.497 291.462 151.554 291.643 151.617C294.095 152.508 293.539 154.827 293.311 156.041C293.013 157.649 292.175 159.107 290.935 160.174C290.864 160.352 290.832 160.543 290.841 160.734C290.85 160.925 290.899 161.111 290.986 161.282C291.073 161.452 291.195 161.602 291.344 161.722C291.493 161.841 291.666 161.928 291.851 161.975C292.057 162.045 292.255 162.139 292.439 162.253C292.264 162.541 292.136 162.855 292.06 163.183C292.018 163.367 291.995 163.556 291.99 163.745C291.99 163.745 291.984 163.732 291.984 163.739Z" fill="#263238"/>
<path d="M293.514 166.703C292.997 166.438 292.561 166.041 292.25 165.552C291.966 165.103 291.797 164.59 291.759 164.06C291.721 163.529 291.814 162.998 292.031 162.512C292.248 162.027 292.581 161.602 293.001 161.276C293.421 160.95 293.915 160.733 294.439 160.644C294.964 160.555 295.502 160.597 296.006 160.766C296.51 160.935 296.965 161.225 297.33 161.612C297.694 161.999 297.958 162.47 298.097 162.983C298.236 163.496 298.247 164.036 298.127 164.554C298.034 164.967 297.86 165.358 297.615 165.704C297.37 166.05 297.06 166.344 296.701 166.57C296.342 166.795 295.942 166.948 295.524 167.018C295.106 167.089 294.679 167.076 294.266 166.981C294.004 166.92 293.751 166.827 293.514 166.703ZM296.282 161.356C296.071 161.248 295.848 161.165 295.618 161.109C295.171 161.009 294.705 161.019 294.263 161.141C293.82 161.263 293.415 161.492 293.082 161.807C292.749 162.123 292.499 162.516 292.354 162.951C292.208 163.386 292.173 163.85 292.25 164.303C292.327 164.755 292.514 165.181 292.794 165.544C293.075 165.907 293.441 166.195 293.86 166.383C294.278 166.571 294.737 166.653 295.194 166.621C295.652 166.59 296.095 166.447 296.484 166.203C296.795 166.008 297.065 165.754 297.277 165.454C297.49 165.155 297.641 164.816 297.723 164.458C297.804 164.1 297.814 163.729 297.753 163.367C297.691 163.005 297.558 162.659 297.362 162.348C297.098 161.926 296.725 161.583 296.282 161.356Z" fill="#263238"/>
<path d="M294.885 163.631L294.98 162.285L295.687 162.443L295.182 163.707L296.496 163.385L296.566 164.105L295.22 164.029L295.934 165.167L295.27 165.451L294.929 164.143L294.051 165.173L293.583 164.63L294.714 163.915L293.45 163.397L293.829 162.765L294.885 163.631Z" fill="#263238"/>
<path d="M294.335 153.203C293.476 150.043 291.175 150.871 291.175 150.871C291.175 150.871 289.488 149.114 287.326 151.604C285.165 154.094 286.031 157.374 283.831 157.444C285.269 158.851 287.068 159.832 289.029 160.278C290.991 160.724 293.037 160.618 294.942 159.972C293.002 158.967 295.201 156.388 294.335 153.203Z" fill="#263238"/>
<path d="M211.802 50.7559C212.157 48.6492 211.914 46.4853 211.1 44.5099C210.287 42.5344 208.936 40.8265 207.202 39.5799C205.467 38.3334 203.417 37.5982 201.285 37.4578C199.154 37.3174 197.025 37.7774 195.142 38.7856C193.258 39.7938 191.695 41.3098 190.63 43.1615C189.564 45.0133 189.04 47.1266 189.115 49.2616C189.19 51.3966 189.862 53.4678 191.055 55.24C192.248 57.0123 193.914 58.4147 195.863 59.2879C196.746 59.6794 197.674 59.9596 198.625 60.1222C200.513 60.4441 202.452 60.2854 204.263 59.6608C204.229 59.4516 204.208 59.2405 204.199 59.0288C202.027 59.813 199.661 59.8796 197.448 59.2186C195.235 58.5576 193.293 57.204 191.907 55.3569C191.844 55.2811 191.781 55.1989 191.724 55.1167C190.901 53.9612 190.313 52.6558 189.992 51.2742C189.682 49.8896 189.643 48.458 189.878 47.0587C190.115 45.6597 190.625 44.3209 191.379 43.119C192.133 41.917 193.117 40.8755 194.273 40.0538C195.43 39.2321 196.738 38.6464 198.121 38.3302C199.504 38.0139 200.936 37.9733 202.335 38.2107C203.233 38.3584 204.108 38.6218 204.939 38.9944C206.356 39.629 207.62 40.5614 208.644 41.7282C209.668 42.8951 210.429 44.2689 210.875 45.7563C211.32 47.2436 211.44 48.8095 211.226 50.3473C211.012 51.8852 210.469 53.3588 209.635 54.668C209.85 54.7209 210.061 54.7884 210.267 54.8703C211.039 53.6109 211.561 52.2137 211.802 50.7559Z" fill="#263238"/>
<path d="M204.199 59.0289C202.713 59.5587 201.151 59.8467 199.573 59.8821C199.275 59.8803 198.977 59.8549 198.682 59.8063C198.384 59.7565 198.09 59.6825 197.804 59.5851C194.795 58.6055 191.572 55.4139 191.572 55.4139L191.913 55.3381C192.889 55.0987 193.886 54.961 194.89 54.9273C195.554 55.041 196.893 54.7693 197.134 53.0313C196.054 50.9032 195.738 48.4695 196.236 46.1361C196.584 44.3981 197.134 40.9664 200.932 41.1307C201.233 41.1477 201.532 41.1815 201.829 41.2318C202.123 41.2817 202.415 41.3471 202.702 41.4277C206.342 42.5211 205.735 45.9402 205.495 47.6909C205.184 50.0625 204.069 52.2557 202.335 53.9034C201.987 55.6477 203.157 56.3429 203.82 56.4314C204.128 56.5158 204.425 56.6368 204.705 56.7917C204.467 57.222 204.304 57.6902 204.225 58.1757C204.181 58.4452 204.162 58.7181 204.168 58.991C204.168 58.991 204.206 59.0226 204.199 59.0289Z" fill="#263238"/>
<path d="M206.664 63.2001C205.907 62.8598 205.253 62.3258 204.769 61.652C204.285 60.9781 203.987 60.1883 203.905 59.3625C203.824 58.5366 203.962 57.7038 204.305 56.9483C204.649 56.1928 205.186 55.5414 205.861 55.0599C206.621 54.5204 207.523 54.2182 208.454 54.1916C209.385 54.165 210.303 54.4151 211.092 54.9104C211.881 55.4056 212.505 56.1237 212.886 56.9738C213.266 57.8239 213.386 58.7678 213.231 59.6861C213.02 60.9165 212.331 62.0132 211.313 62.7359C210.295 63.4586 209.033 63.7483 207.802 63.5413C207.41 63.4738 207.028 63.3592 206.664 63.2001ZM210.254 55.18C209.939 55.0385 209.608 54.9386 209.268 54.8829C208.251 54.7131 207.207 54.9371 206.349 55.5094C205.49 56.0817 204.883 56.9594 204.648 57.9639C204.414 58.9684 204.571 60.0244 205.088 60.9172C205.605 61.8099 206.442 62.4724 207.429 62.77C208.417 63.0675 209.481 62.9778 210.405 62.519C211.328 62.0602 212.043 61.2668 212.403 60.3001C212.762 59.3334 212.74 58.266 212.341 57.3149C211.942 56.3638 211.196 55.6004 210.254 55.18Z" fill="#263238"/>
<path d="M208.415 58.6371V56.6653L209.458 56.8422L208.826 58.7382L210.722 58.1568L210.88 59.2059H208.914L210.045 60.7986L209.104 61.2726L208.472 59.3766L207.284 60.9439L206.55 60.1855L208.143 59.0542L206.291 58.4222L206.784 57.4932L208.415 58.6371Z" fill="#263238"/>
<path d="M124.026 37.1432L106.181 40.1005C105.527 40.209 105.085 40.8273 105.193 41.4815L106.985 52.2929C107.093 52.9472 107.712 53.3897 108.366 53.2812L126.21 50.3239C126.865 50.2155 127.307 49.5972 127.199 48.9429L125.407 38.1315C125.298 37.4773 124.68 37.0348 124.026 37.1432Z" stroke="#263238" stroke-linecap="round" stroke-linejoin="round"/>
<path d="M105.253 41.8826L115.024 46.136C115.454 46.3232 115.929 46.3816 116.391 46.3042C116.853 46.2268 117.283 46.0169 117.628 45.6999L125.465 38.552" stroke="#263238" stroke-linecap="round" stroke-linejoin="round"/>
<path d="M108.635 50.522L112.932 47.0776" stroke="#263238" stroke-linecap="round" stroke-linejoin="round"/>
<path d="M125.054 47.8044L119.872 45.9084" stroke="#263238" stroke-linecap="round" stroke-linejoin="round"/>
<path d="M199.972 261.854L184.416 252.81C183.846 252.478 183.115 252.672 182.783 253.242L177.304 262.667C176.972 263.237 177.166 263.968 177.736 264.3L193.292 273.344C193.862 273.675 194.593 273.482 194.925 272.912L200.404 263.487C200.736 262.917 200.542 262.185 199.972 261.854Z" stroke="#263238" stroke-linecap="round" stroke-linejoin="round"/>
<path d="M182.534 255.24L187.331 264.72C187.538 265.14 187.862 265.492 188.265 265.732C188.668 265.973 189.132 266.091 189.6 266.072L200.23 265.554" stroke="#263238" stroke-linecap="round" stroke-linejoin="round"/>
<path d="M179.627 264.056L185.138 264.138" stroke="#263238" stroke-linecap="round" stroke-linejoin="round"/>
<path d="M194.024 272.43L191.231 267.677" stroke="#263238" stroke-linecap="round" stroke-linejoin="round"/>
<path d="M33.4453 184.455L17.5254 193.041C16.9417 193.356 16.7237 194.085 17.0385 194.668L22.2407 204.314C22.5556 204.897 23.2839 205.115 23.8676 204.8L39.7876 196.214C40.3713 195.899 40.5893 195.171 40.2744 194.587L35.0722 184.942C34.7574 184.358 34.029 184.14 33.4453 184.455Z" stroke="#263238" stroke-linecap="round" stroke-linejoin="round"/>
<path d="M17.2095 195.023L27.8081 195.92C28.2754 195.955 28.7428 195.855 29.1543 195.63C29.5657 195.406 29.9037 195.068 30.1276 194.656L35.2341 185.322" stroke="#263238" stroke-linecap="round" stroke-linejoin="round"/>
<path d="M23.2134 202.107L26.1585 197.449" stroke="#263238" stroke-linecap="round" stroke-linejoin="round"/>
<path d="M37.8631 194.207L32.3521 194.113" stroke="#263238" stroke-linecap="round" stroke-linejoin="round"/>
<path d="M47.1157 71.9659V250.222C47.1157 250.702 47.3059 251.162 47.6447 251.502C47.9835 251.842 48.4433 252.034 48.9232 252.035H157.311C157.792 252.035 158.254 251.844 158.594 251.504C158.934 251.164 159.125 250.703 159.125 250.222V71.9975C159.122 70.9023 158.685 69.853 157.911 69.0786C157.136 68.3041 156.087 67.8676 154.992 67.8643H129.175C128.674 67.8652 128.188 68.0274 127.787 68.3269C127.386 68.6263 127.093 69.047 126.95 69.5264C126.81 70.0068 126.517 70.4283 126.116 70.7272C125.714 71.026 125.226 71.1877 124.725 71.1886H81.5281C81.0276 71.1886 80.5405 71.0268 80.1396 70.7272C79.7386 70.4276 79.4453 70.0064 79.3035 69.5264C79.1634 69.0444 78.8679 68.6222 78.4629 68.3256C78.0608 68.0269 77.5734 67.8652 77.0725 67.8643H51.249C50.1592 67.8675 49.1146 68.2997 48.3411 69.0673C47.5675 69.8349 47.1273 70.8762 47.1157 71.9659Z" fill="#263238" stroke="#263238" stroke-linecap="round" stroke-linejoin="round"/>
<path d="M47.1156 104.564L159.125 104.564V82.2549L47.1156 82.2549V104.564Z" fill="#00A86B" stroke="#263238" stroke-linecap="round" stroke-linejoin="round"/>
<path d="M47.1156 229.037H159.125L159.125 104.564L47.1156 104.564L47.1156 229.037Z" fill="white" stroke="#263238" stroke-linecap="round" stroke-linejoin="round"/>
<path d="M102.852 242.821H106.347C107.499 242.821 108.432 241.887 108.432 240.735V237.24C108.432 236.088 107.499 235.155 106.347 235.155H102.852C101.7 235.155 100.766 236.088 100.766 237.24V240.735C100.766 241.887 101.7 242.821 102.852 242.821Z" fill="white" stroke="#263238" stroke-linecap="round" stroke-linejoin="round"/>
<path d="M59.0162 90.2371H53.5178" stroke="#263238" stroke-linecap="round" stroke-linejoin="round"/>
<path d="M59.0162 93.2581H53.5178" stroke="#263238" stroke-linecap="round" stroke-linejoin="round"/>
<path d="M59.0162 96.2791H53.5178" stroke="#263238" stroke-linecap="round" stroke-linejoin="round"/>
<path d="M93.1063 117.224H74.576C74.2408 117.224 73.9193 117.09 73.6822 116.853C73.4452 116.616 73.312 116.295 73.312 115.96C73.312 115.624 73.4452 115.303 73.6822 115.066C73.9193 114.829 74.2408 114.696 74.576 114.696H93.081C93.4162 114.696 93.7377 114.829 93.9748 115.066C94.2118 115.303 94.345 115.624 94.345 115.96C94.345 116.29 94.2153 116.608 93.9837 116.845C93.7521 117.081 93.4371 117.217 93.1063 117.224Z" fill="#263238"/>
<path d="M138.275 120.327H74.0201C73.9318 120.327 73.8443 120.311 73.7627 120.277C73.681 120.244 73.6068 120.195 73.5445 120.132C73.4821 120.07 73.4328 119.996 73.3994 119.914C73.366 119.832 73.3493 119.745 73.3501 119.657C73.3501 119.569 73.3675 119.482 73.4012 119.401C73.435 119.32 73.4844 119.247 73.5467 119.185C73.609 119.123 73.6829 119.075 73.7642 119.042C73.8454 119.009 73.9324 118.992 74.0201 118.993H138.275C138.364 118.988 138.452 119.003 138.535 119.034C138.617 119.066 138.692 119.115 138.755 119.177C138.817 119.24 138.866 119.315 138.898 119.397C138.93 119.48 138.944 119.568 138.939 119.657C138.94 119.744 138.923 119.831 138.89 119.913C138.857 119.994 138.809 120.068 138.747 120.13C138.685 120.192 138.612 120.242 138.531 120.275C138.45 120.309 138.363 120.327 138.275 120.327Z" fill="#263238"/>
<path d="M67.1675 122.796C69.962 120.224 70.1428 115.874 67.5713 113.08C64.9998 110.285 60.6498 110.104 57.8553 112.676C55.0608 115.247 54.88 119.597 57.4515 122.392C60.023 125.186 64.373 125.367 67.1675 122.796Z" fill="white" stroke="#263238" stroke-linecap="round" stroke-linejoin="round"/>
<path d="M63.0675 124.555C65.0014 124.27 67.3019 122.659 67.3019 122.659C66.6638 122.386 66.0015 122.175 65.3237 122.027C65.1511 122.021 64.9816 121.98 64.8264 121.904C64.6712 121.828 64.5338 121.721 64.4233 121.588C64.3128 121.456 64.2316 121.301 64.1853 121.135C64.139 120.968 64.1285 120.794 64.1545 120.624C65.0338 119.439 65.48 117.989 65.4185 116.516C65.3869 115.416 65.4185 113.273 63.0675 112.976C62.8905 112.976 62.7072 112.976 62.5113 112.976C62.3154 112.976 62.1321 112.976 61.9551 112.976C59.6231 113.273 59.642 115.416 59.6041 116.516C59.5426 117.989 59.9888 119.439 60.8681 120.624C60.8941 120.794 60.8836 120.968 60.8373 121.135C60.7909 121.301 60.7098 121.456 60.5993 121.588C60.4888 121.721 60.3514 121.828 60.1962 121.904C60.0409 121.98 59.8714 122.021 59.6989 122.027C59.0231 122.174 58.3629 122.386 57.7271 122.659C57.7271 122.659 60.0212 124.27 61.9551 124.555C62.1388 124.586 62.3248 124.603 62.5113 124.605C62.6978 124.604 62.8838 124.587 63.0675 124.555Z" fill="#263238"/>
<path d="M68.471 125.762C69.9719 125.762 71.1886 124.545 71.1886 123.044C71.1886 121.543 69.9719 120.327 68.471 120.327C66.9701 120.327 65.7534 121.543 65.7534 123.044C65.7534 124.545 66.9701 125.762 68.471 125.762Z" fill="#00A86B" stroke="#263238" stroke-linecap="round" stroke-linejoin="round"/>
<path d="M68.3319 122.886L68.1423 121.679H68.7743L68.5847 122.886L69.6717 122.336L69.8739 122.968L68.6795 123.177L69.5327 124.03L69.0081 124.416L68.4456 123.335L67.8831 124.416L67.3586 124.03L68.2118 123.177L67.011 122.968L67.2195 122.336L68.3319 122.886Z" fill="#263238"/>
<path d="M65.7281 113.823C64.3314 111.201 62.4859 112.408 62.4859 112.408C62.4859 112.408 60.6721 111.232 59.269 113.823C57.866 116.415 59.269 119.164 57.373 119.657C58.9169 120.611 60.6961 121.117 62.5112 121.117C64.3263 121.117 66.1055 120.611 67.6494 119.657C65.7281 119.164 67.1501 116.446 65.7281 113.823Z" fill="#263238"/>
<path d="M63.7438 79.8342H64.9951V77.2809H63.7438V79.8342Z" fill="white"/>
<path d="M61.4432 79.8281H62.6946V76.2384H61.4432V79.8281Z" fill="white"/>
<path d="M59.149 79.8342H60.4004V75.2143H59.149V79.8342Z" fill="white"/>
<path d="M56.8485 79.8281H58.0999V74.178H56.8485V79.8281Z" fill="white"/>
<path d="M144.09 79.3098H150.827C151.242 79.3098 151.579 78.9731 151.579 78.5577V75.442C151.579 75.0266 151.242 74.6899 150.827 74.6899H144.09C143.675 74.6899 143.338 75.0266 143.338 75.442V78.5577C143.338 78.9731 143.675 79.3098 144.09 79.3098Z" fill="white"/>
<path d="M142.377 78.3428H141.745C141.578 78.3428 141.417 78.2762 141.298 78.1577C141.18 78.0391 141.113 77.8784 141.113 77.7108V76.2698C141.113 76.1022 141.18 75.9414 141.298 75.8229C141.417 75.7044 141.578 75.6378 141.745 75.6378H142.377V78.3238V78.3428Z" fill="white"/>
<path d="M151.478 90.2496C151.866 90.6377 152.13 91.132 152.237 91.6702C152.344 92.2084 152.289 92.7661 152.079 93.273C151.869 93.7799 151.513 94.2131 151.057 94.5179C150.6 94.8227 150.064 94.9854 149.515 94.9854C148.967 94.9854 148.43 94.8227 147.974 94.5179C147.518 94.2131 147.162 93.7799 146.952 93.273C146.742 92.7661 146.687 92.2084 146.794 91.6702C146.901 91.132 147.165 90.6377 147.553 90.2496C147.81 89.9911 148.116 89.7859 148.453 89.6459C148.79 89.5059 149.151 89.4338 149.515 89.4338C149.88 89.4338 150.241 89.5059 150.578 89.6459C150.915 89.7859 151.221 89.9911 151.478 90.2496Z" stroke="#263238" stroke-linecap="round" stroke-linejoin="round"/>
<path d="M151.478 94.1743L154.391 97.0878" stroke="#263238" stroke-linecap="round" stroke-linejoin="round"/>
<path d="M110.537 88.2463H97.5619C96.8987 88.2463 96.3611 88.784 96.3611 89.4471V97.0754C96.3611 97.7386 96.8987 98.2762 97.5619 98.2762H110.537C111.2 98.2762 111.738 97.7386 111.738 97.0754V89.4471C111.738 88.784 111.2 88.2463 110.537 88.2463Z" fill="#263238" stroke="#00A86B" stroke-linecap="round" stroke-linejoin="round"/>
<path d="M96.3611 89.447L103.06 93.8015C103.356 93.99 103.699 94.0901 104.049 94.0901C104.4 94.0901 104.743 93.99 105.038 93.8015L111.738 89.447" fill="#263238"/>
<path d="M96.3611 89.447L103.06 93.8015C103.356 93.99 103.699 94.0901 104.049 94.0901C104.4 94.0901 104.743 93.99 105.038 93.8015L111.738 89.447" stroke="#00A86B" stroke-linecap="round" stroke-linejoin="round"/>
<path d="M97.802 96.2663L101.411 94.2375L97.802 96.2663Z" fill="#263238"/>
<path d="M97.802 96.2663L101.411 94.2375" stroke="#00A86B" stroke-linecap="round" stroke-linejoin="round"/>
<path d="M110.297 96.2663L106.694 94.2375L110.297 96.2663Z" fill="#263238"/>
<path d="M110.297 96.2663L106.694 94.2375" stroke="#00A86B" stroke-linecap="round" stroke-linejoin="round"/>
<path d="M86.7863 139.255H74.576C74.2408 139.255 73.9193 139.122 73.6822 138.885C73.4452 138.648 73.312 138.326 73.312 137.991C73.312 137.656 73.4452 137.334 73.6822 137.097C73.9193 136.86 74.2408 136.727 74.576 136.727H86.761C87.0962 136.727 87.4177 136.86 87.6548 137.097C87.8918 137.334 88.025 137.656 88.025 137.991C88.025 138.322 87.8953 138.64 87.6637 138.876C87.4321 139.112 87.1171 139.248 86.7863 139.255Z" fill="#263238"/>
<path d="M112.995 142.364H74.02C73.8423 142.364 73.6719 142.294 73.5463 142.168C73.4207 142.043 73.3501 141.872 73.3501 141.695C73.3583 141.523 73.4326 141.361 73.5576 141.243C73.6825 141.126 73.8483 141.061 74.02 141.063H112.995C113.081 141.058 113.167 141.071 113.247 141.101C113.327 141.131 113.401 141.177 113.463 141.236C113.525 141.295 113.574 141.366 113.608 141.445C113.642 141.524 113.659 141.609 113.659 141.695C113.659 141.871 113.589 142.041 113.465 142.166C113.341 142.291 113.172 142.363 112.995 142.364Z" fill="#263238"/>
<path d="M67.3079 144.689C70.03 142.041 70.09 137.687 67.442 134.965C64.794 132.243 60.4406 132.183 57.7186 134.831C54.9965 137.479 54.9364 141.832 57.5845 144.554C60.2325 147.277 64.5858 147.337 67.3079 144.689Z" fill="white" stroke="#263238" stroke-linecap="round" stroke-linejoin="round"/>
<path d="M63.0675 146.624C65.0014 146.34 67.3019 144.728 67.3019 144.728C66.6638 144.456 66.0015 144.244 65.3237 144.096C65.1511 144.091 64.9816 144.049 64.8264 143.973C64.6712 143.898 64.5338 143.79 64.4233 143.658C64.3128 143.525 64.2316 143.37 64.1853 143.204C64.139 143.038 64.1285 142.864 64.1545 142.693C65.032 141.508 65.478 140.058 65.4185 138.585C65.3869 137.485 65.4185 135.336 63.0675 135.046C62.8822 135.036 62.6966 135.036 62.5113 135.046C62.326 135.036 62.1404 135.036 61.9551 135.046C59.6231 135.336 59.642 137.485 59.6041 138.585C59.5446 140.058 59.9906 141.508 60.8681 142.693C60.8941 142.864 60.8836 143.038 60.8373 143.204C60.7909 143.37 60.7098 143.525 60.5993 143.658C60.4888 143.79 60.3514 143.898 60.1962 143.973C60.0409 144.049 59.8714 144.091 59.6989 144.096C59.0231 144.244 58.3629 144.455 57.7271 144.728C57.7271 144.728 60.0402 146.308 61.9362 146.624C62.1199 146.656 62.3059 146.673 62.4923 146.675C62.6788 146.673 62.8648 146.656 63.0485 146.624H63.0675Z" fill="#263238"/>
<path d="M68.471 147.793C69.9719 147.793 71.1886 146.577 71.1886 145.076C71.1886 143.575 69.9719 142.358 68.471 142.358C66.9701 142.358 65.7534 143.575 65.7534 145.076C65.7534 146.577 66.9701 147.793 68.471 147.793Z" fill="#00A86B" stroke="#263238" stroke-linecap="round" stroke-linejoin="round"/>
<path d="M68.3319 144.924L68.1423 143.717H68.7743L68.5847 144.924L69.6717 144.374L69.8739 145.006L68.6795 145.208L69.5327 146.068L69.0081 146.453L68.4456 145.373L67.8831 146.453L67.3586 146.068L68.2118 145.208L67.011 145.006L67.2195 144.374L68.3319 144.924Z" fill="#263238"/>
<path d="M99.4263 161.293H74.576C74.2408 161.293 73.9193 161.16 73.6822 160.923C73.4452 160.686 73.312 160.364 73.312 160.029C73.312 159.694 73.4452 159.372 73.6822 159.135C73.9193 158.898 74.2408 158.765 74.576 158.765H99.401C99.7362 158.765 100.058 158.898 100.295 159.135C100.532 159.372 100.665 159.694 100.665 160.029C100.665 160.36 100.535 160.678 100.304 160.914C100.072 161.15 99.7571 161.286 99.4263 161.293Z" fill="#263238"/>
<path d="M125.635 164.402H74.02C73.8423 164.402 73.6719 164.332 73.5463 164.206C73.4207 164.08 73.3501 163.91 73.3501 163.732C73.3501 163.645 73.3675 163.558 73.4012 163.477C73.435 163.396 73.4844 163.323 73.5467 163.261C73.609 163.199 73.6829 163.15 73.7641 163.117C73.8454 163.084 73.9323 163.068 74.02 163.069H125.635C125.724 163.064 125.812 163.078 125.895 163.11C125.977 163.142 126.052 163.19 126.115 163.253C126.177 163.316 126.226 163.391 126.258 163.473C126.29 163.556 126.304 163.644 126.299 163.732C126.299 163.909 126.229 164.078 126.105 164.204C125.981 164.329 125.812 164.401 125.635 164.402Z" fill="#263238"/>
<path d="M64.1591 168.477C67.8473 167.573 70.104 163.85 69.1994 160.161C68.2949 156.473 64.5716 154.216 60.8833 155.121C57.195 156.025 54.9384 159.749 55.8429 163.437C56.7475 167.125 60.4708 169.382 64.1591 168.477Z" fill="white" stroke="#263238" stroke-linecap="round" stroke-linejoin="round"/>
<path d="M63.0675 168.63C65.0014 168.346 67.3019 166.734 67.3019 166.734C66.6638 166.462 66.0015 166.25 65.3237 166.102C65.1511 166.097 64.9816 166.055 64.8264 165.98C64.6712 165.904 64.5338 165.797 64.4233 165.664C64.3128 165.531 64.2316 165.377 64.1853 165.21C64.139 165.044 64.1285 164.87 64.1545 164.699C65.032 163.514 65.478 162.065 65.4185 160.591C65.3869 159.492 65.4185 157.343 63.0675 157.052C62.8822 157.042 62.6966 157.042 62.5113 157.052C62.326 157.042 62.1404 157.042 61.9551 157.052C59.6231 157.343 59.642 159.492 59.6041 160.591C59.5446 162.065 59.9906 163.514 60.8681 164.699C60.8941 164.87 60.8836 165.044 60.8373 165.21C60.7909 165.377 60.7098 165.531 60.5993 165.664C60.4888 165.797 60.3514 165.904 60.1962 165.98C60.0409 166.055 59.8714 166.097 59.6989 166.102C59.0231 166.25 58.3629 166.462 57.7271 166.734C57.7271 166.734 60.0212 168.346 61.9551 168.63C62.1388 168.662 62.3248 168.679 62.5113 168.681C62.6978 168.679 62.8838 168.663 63.0675 168.63Z" fill="#263238"/>
<path d="M62.5112 156.616C60.0401 156.616 58.3084 158.329 57.9861 164.503C60.9223 165.489 64.1002 165.489 67.0363 164.503C66.714 158.329 64.9823 156.616 62.5112 156.616Z" fill="#263238"/>
<path d="M93.1063 183.331H74.576C74.2408 183.331 73.9193 183.198 73.6822 182.961C73.4452 182.723 73.312 182.402 73.312 182.067C73.312 181.732 73.4452 181.41 73.6822 181.173C73.9193 180.936 74.2408 180.803 74.576 180.803H93.081C93.4162 180.803 93.7377 180.936 93.9748 181.173C94.2118 181.41 94.345 181.732 94.345 182.067C94.345 182.398 94.2153 182.715 93.9837 182.952C93.7521 183.188 93.4371 183.324 93.1063 183.331Z" fill="#263238"/>
<path d="M138.275 186.44H74.02C73.9323 186.441 73.8454 186.424 73.7641 186.392C73.6829 186.359 73.609 186.31 73.5467 186.248C73.4844 186.186 73.435 186.113 73.4012 186.032C73.3675 185.951 73.3501 185.864 73.3501 185.777C73.3501 185.599 73.4207 185.429 73.5463 185.303C73.6719 185.177 73.8423 185.107 74.02 185.107H138.275C138.452 185.108 138.621 185.18 138.745 185.305C138.869 185.431 138.939 185.6 138.939 185.777C138.944 185.865 138.93 185.953 138.898 186.036C138.866 186.118 138.817 186.193 138.755 186.256C138.692 186.318 138.617 186.367 138.535 186.399C138.452 186.431 138.364 186.445 138.275 186.44Z" fill="#263238"/>
<path d="M67.3138 188.757C70.0358 186.109 70.0959 181.756 67.4478 179.034C64.7998 176.312 60.4465 176.252 57.7244 178.9C55.0023 181.548 54.9423 185.901 57.5903 188.623C60.2384 191.345 64.5917 191.405 67.3138 188.757Z" fill="white" stroke="#263238" stroke-linecap="round" stroke-linejoin="round"/>
<path d="M63.0675 190.668C65.0014 190.384 67.3019 188.772 67.3019 188.772C66.6638 188.5 66.0015 188.288 65.3237 188.14C65.1511 188.135 64.9816 188.093 64.8264 188.018C64.6712 187.942 64.5338 187.834 64.4233 187.702C64.3128 187.569 64.2316 187.415 64.1853 187.248C64.139 187.082 64.1285 186.908 64.1545 186.737C65.0329 185.55 65.4789 184.098 65.4185 182.623C65.3869 181.529 65.4185 179.381 63.0675 179.09C62.8828 179.069 62.6971 179.059 62.5113 179.058C62.3255 179.059 62.1398 179.069 61.9551 179.09C59.6231 179.381 59.642 181.529 59.6041 182.623C59.5437 184.098 59.9897 185.55 60.8681 186.737C60.8941 186.908 60.8836 187.082 60.8373 187.248C60.7909 187.415 60.7098 187.569 60.5993 187.702C60.4888 187.834 60.3514 187.942 60.1962 188.018C60.0409 188.093 59.8714 188.135 59.6989 188.14C59.0231 188.288 58.3629 188.5 57.7271 188.772C57.7271 188.772 60.0212 190.384 61.9551 190.668C62.1392 190.697 62.325 190.714 62.5113 190.719C62.6976 190.714 62.8834 190.697 63.0675 190.668Z" fill="#263238"/>
<path d="M68.471 191.869C69.9719 191.869 71.1886 190.652 71.1886 189.151C71.1886 187.651 69.9719 186.434 68.471 186.434C66.9701 186.434 65.7534 187.651 65.7534 189.151C65.7534 190.652 66.9701 191.869 68.471 191.869Z" fill="#00A86B" stroke="#263238" stroke-linecap="round" stroke-linejoin="round"/>
<path d="M68.3319 188.968L68.1423 187.767H68.7743L68.5847 188.968L69.6717 188.425L69.8739 189.057L68.6795 189.259L69.5327 190.112L69.0081 190.504L68.4456 189.423L67.8831 190.504L67.3586 190.112L68.2118 189.259L67.011 189.057L67.2195 188.425L68.3319 188.968Z" fill="#263238"/>
<path d="M80.4663 205.4H74.576C74.2408 205.4 73.9193 205.267 73.6822 205.03C73.4452 204.793 73.312 204.471 73.312 204.136C73.312 203.801 73.4452 203.479 73.6822 203.242C73.9193 203.005 74.2408 202.872 74.576 202.872H80.441C80.7762 202.872 81.0977 203.005 81.3348 203.242C81.5718 203.479 81.705 203.801 81.705 204.136C81.705 204.467 81.5753 204.785 81.3437 205.021C81.1121 205.257 80.7971 205.393 80.4663 205.4Z" fill="#263238"/>
<path d="M131.955 208.472H74.02C73.9323 208.473 73.8454 208.456 73.7641 208.423C73.6829 208.39 73.609 208.341 73.5467 208.28C73.4844 208.218 73.435 208.144 73.4012 208.064C73.3675 207.983 73.3501 207.896 73.3501 207.808C73.3501 207.63 73.4207 207.46 73.5463 207.334C73.6719 207.209 73.8423 207.138 74.02 207.138H131.955C132.132 207.14 132.301 207.211 132.425 207.337C132.549 207.462 132.619 207.632 132.619 207.808C132.624 207.896 132.61 207.985 132.578 208.067C132.546 208.15 132.497 208.225 132.435 208.287C132.372 208.35 132.297 208.399 132.215 208.43C132.132 208.462 132.044 208.476 131.955 208.472Z" fill="#263238"/>
<path d="M67.3165 210.798C70.0385 208.15 70.0986 203.797 67.4505 201.075C64.8025 198.352 60.4492 198.292 57.7271 200.94C55.005 203.588 54.945 207.942 57.593 210.664C60.241 213.386 64.5944 213.446 67.3165 210.798Z" fill="white" stroke="#263238" stroke-linecap="round" stroke-linejoin="round"/>
<path d="M63.0675 212.706C65.0014 212.415 67.3019 210.81 67.3019 210.81C66.6638 210.538 66.0015 210.326 65.3237 210.178C65.1515 210.172 64.9825 210.129 64.8278 210.054C64.673 209.978 64.536 209.87 64.4257 209.738C64.3154 209.605 64.2342 209.451 64.1875 209.285C64.1408 209.119 64.1295 208.945 64.1545 208.775C65.0329 207.588 65.4789 206.136 65.4185 204.661C65.3869 203.567 65.4185 201.419 63.0675 201.128C62.8828 201.107 62.6971 201.097 62.5113 201.096C62.3255 201.097 62.1398 201.107 61.9551 201.128C59.6231 201.419 59.642 203.567 59.6041 204.661C59.5437 206.136 59.9897 207.588 60.8681 208.775C60.8931 208.945 60.8818 209.119 60.8351 209.285C60.7884 209.451 60.7072 209.605 60.5969 209.738C60.4865 209.87 60.3495 209.978 60.1948 210.054C60.0401 210.129 59.8711 210.172 59.6989 210.178C59.0231 210.326 58.3629 210.537 57.7271 210.81C57.7271 210.81 60.0212 212.415 61.9551 212.706C62.1394 212.733 62.3251 212.748 62.5113 212.75C62.6975 212.748 62.8833 212.733 63.0675 212.706Z" fill="#263238"/>
<path d="M93.1063 227.406H74.576C74.2408 227.406 73.9193 227.273 73.6822 227.036C73.4452 226.799 73.312 226.478 73.312 226.142C73.312 225.807 73.4452 225.486 73.6822 225.249C73.9193 225.012 74.2408 224.878 74.576 224.878H93.081C93.4162 224.878 93.7377 225.012 93.9748 225.249C94.2118 225.486 94.345 225.807 94.345 226.142C94.345 226.473 94.2153 226.791 93.9837 227.027C93.7521 227.264 93.4371 227.4 93.1063 227.406Z" fill="#263238"/>
<path d="M69.3873 227.912C69.388 228.289 69.3563 228.665 69.2925 229.037H55.7298C55.6661 228.665 55.6344 228.289 55.635 227.912C55.635 226.088 56.3595 224.339 57.649 223.05C58.9385 221.76 60.6875 221.036 62.5112 221.036C64.3349 221.036 66.0838 221.76 67.3734 223.05C68.6629 224.339 69.3873 226.088 69.3873 227.912Z" fill="white" stroke="#263238" stroke-linecap="round" stroke-linejoin="round"/>
<path d="M65.4185 226.692C65.4483 227.488 65.3304 228.283 65.0709 229.037H59.9517C59.6922 228.283 59.5744 227.488 59.6041 226.692C59.642 225.599 59.6041 223.45 61.9552 223.159C62.3247 223.117 62.6979 223.117 63.0675 223.159C65.4059 223.45 65.3869 225.624 65.4185 226.692Z" fill="#263238"/>
<path d="M140.652 225.675C145.667 225.675 149.734 221.609 149.734 216.593C149.734 211.577 145.667 207.511 140.652 207.511C135.636 207.511 131.57 211.577 131.57 216.593C131.57 221.609 135.636 225.675 140.652 225.675Z" fill="#00A86B" stroke="#263238" stroke-linecap="round" stroke-linejoin="round"/>
<path d="M144.62 213.849L143.4 212.629L137.912 218.117L139.132 219.337L144.62 213.849Z" fill="#263238"/>
<path d="M137.359 218.666L136.689 220.555L138.579 219.886L137.359 218.666Z" fill="#263238"/>
<path d="M175.747 84.176H207.214C208.303 84.176 209.348 84.6088 210.119 85.3792C210.889 86.1496 211.322 87.1945 211.322 88.284V107.029C211.323 107.569 211.217 108.104 211.011 108.603C210.805 109.102 210.503 109.556 210.121 109.938C209.739 110.32 209.286 110.623 208.787 110.83C208.289 111.037 207.754 111.143 207.214 111.143H203.289L206.917 118.02L198.537 111.143H175.747C175.207 111.143 174.672 111.037 174.173 110.83C173.674 110.623 173.221 110.32 172.84 109.938C172.458 109.556 172.156 109.102 171.95 108.603C171.743 108.104 171.638 107.569 171.639 107.029V88.284C171.639 87.1945 172.071 86.1496 172.842 85.3792C173.612 84.6088 174.657 84.176 175.747 84.176Z" stroke="#263238" stroke-linecap="round" stroke-linejoin="round"/>
<g opacity="0.5">
<path d="M177.434 91.7537H205.533C205.819 91.7537 206.051 91.5216 206.051 91.2354V91.0079C206.051 90.7217 205.819 90.4897 205.533 90.4897H177.434C177.148 90.4897 176.916 90.7217 176.916 91.0079V91.2354C176.916 91.5216 177.148 91.7537 177.434 91.7537Z" fill="#263238"/>
<path d="M177.434 96.0134H205.533C205.819 96.0134 206.051 95.7814 206.051 95.4952V95.2677C206.051 94.9814 205.819 94.7494 205.533 94.7494H177.434C177.148 94.7494 176.916 94.9814 176.916 95.2677V95.4952C176.916 95.7814 177.148 96.0134 177.434 96.0134Z" fill="#263238"/>
<path d="M177.434 100.273H205.533C205.819 100.273 206.051 100.041 206.051 99.755V99.5274C206.051 99.2412 205.819 99.0092 205.533 99.0092H177.434C177.148 99.0092 176.916 99.2412 176.916 99.5274V99.755C176.916 100.041 177.148 100.273 177.434 100.273Z" fill="#263238"/>
<path d="M190.706 104.539H205.526C205.813 104.539 206.045 104.307 206.045 104.021V103.793C206.045 103.507 205.813 103.275 205.526 103.275H190.706C190.42 103.275 190.188 103.507 190.188 103.793V104.021C190.188 104.307 190.42 104.539 190.706 104.539Z" fill="#263238"/>
</g>
<path d="M215.019 206.215C215.018 206.228 215.018 206.241 215.019 206.253C214.716 206.885 210.342 216.233 205.014 225.213C203.618 227.571 202.158 229.896 200.685 232.039C197.481 236.703 194.233 240.476 191.534 241.652C182.686 245.5 187.742 215.341 187.742 215.341C190.969 211.5 193.745 207.302 196.015 202.828C197.07 200.742 198.296 198.322 199.579 195.876C200.565 194.011 201.576 192.147 202.569 190.422C204.812 186.503 206.904 183.343 208.174 182.724C209.565 182.041 211.486 189.088 212.94 195.642C214.122 201.102 215.019 206.215 215.019 206.215Z" fill="white" stroke="#263238" stroke-linecap="round" stroke-linejoin="round"/>
<path d="M215.019 206.215C215.018 206.228 215.018 206.241 215.019 206.253C214.716 206.885 210.342 216.233 205.014 225.213C206.62 210.861 205.116 201.261 205.116 201.261C201.696 196.091 199.554 195.895 199.554 195.895C200.54 194.03 201.551 192.166 202.543 190.441L207.068 186.213L212.914 195.661C214.122 201.103 215.019 206.215 215.019 206.215Z" fill="#263238"/>
<path d="M255.796 109.696C263.784 115.479 270.774 135.905 268.107 149.177C265.44 162.449 279.161 166.241 279.11 187.192C279.11 193.032 261.022 216.77 240.021 204.104C219.02 191.439 213.186 185.208 215.183 172.504C217.18 159.801 217.269 151.446 213.477 140.784C209.685 130.123 241.304 99.224 255.796 109.696Z" fill="#263238"/>
<path d="M286.523 199.282L282.062 202.31C280.899 209.633 278.873 216.793 276.026 223.64C270.407 236.83 265.434 244.692 263.696 247.289C263.266 247.921 263.032 248.237 263.032 248.237L267.696 265.725C267.696 265.725 236.57 298.089 202.24 293.419L204.534 275.091L207.625 250.443L208.629 242.435C208.629 242.435 208.206 236.69 207.53 229.618C207.068 224.746 206.487 219.241 205.83 214.552C205.802 214.342 205.792 214.131 205.798 213.92C205.849 210.962 208.168 204.743 208.168 204.743C206.209 201.64 204.376 198.783 202.866 196.527C200.868 193.5 199.548 191.553 199.548 191.553C199.548 191.553 206.5 183.008 206.891 182.035C209.091 176.278 216.776 177.352 216.776 177.352C217.35 176.796 218.068 176.411 218.849 176.24C222.502 175.323 232.886 182.604 238.555 182.661C244.224 182.718 272.051 175.222 272.051 175.222L274.882 176.24C274.882 176.24 278.718 175.785 281.714 181.334C283.136 184.02 286.523 199.282 286.523 199.282Z" fill="#00A86B"/>
<path opacity="0.3" d="M236.557 271.356C236.557 271.356 217.218 277.884 204.502 275.097L207.593 250.449C210.348 253.186 226.325 268.6 236.557 271.356Z" fill="black" fill-opacity="0.7"/>
<path opacity="0.3" d="M208.136 204.768C206.177 201.665 204.344 198.808 202.834 196.552C204.149 193.392 206.101 190.466 208.806 190.637C208.806 190.637 206.917 199.029 208.136 204.768Z" fill="black" fill-opacity="0.7"/>
<path opacity="0.3" d="M270.856 199.282C267.387 200.433 259.524 203.915 259.524 203.915L258.071 202.227L263.664 194.214C263.664 194.214 259.727 195.806 258.071 197.81C256.415 199.813 255.979 204.281 255.916 204.262C255.853 204.243 254.468 199.56 254.468 199.56C253.998 201.51 253.69 203.495 253.546 205.495C253.362 207.612 255.688 211.056 257.704 213.616L254.19 232.317L240.792 224.17L234.472 220.341C233.919 220.049 233.385 219.724 232.873 219.367C232.14 218.773 231.66 218.002 230.806 217.471C229.831 216.924 228.779 216.53 227.684 216.302C223.684 215.371 219.526 215.338 215.512 216.207C213.818 216.574 212.08 217.098 210.399 216.7C208.718 216.302 207.277 214.956 205.798 213.945C205.792 214.156 205.802 214.367 205.83 214.577C206.462 219.266 207.094 224.771 207.53 229.644H208.25C208.717 229.618 209.185 229.656 209.641 229.757C210.608 230.023 212.529 234.737 213.193 235.483C218.04 240.893 226.149 250.019 232.039 254.285C230.863 251.125 224.714 240.065 224.828 236.589C226.149 237.032 227.179 238.049 228.24 238.953C231.438 241.696 235.256 243.604 239.022 245.488L247.321 249.64C249.849 250.904 253.179 252.882 256.086 252.105C258.469 251.473 261.471 249.078 263.373 247.567L263.689 247.314C265.427 244.717 270.401 236.855 276.02 223.665C278.867 216.818 280.893 209.658 282.055 202.335L286.517 199.308C286.517 199.308 274.326 198.132 270.856 199.282Z" fill="black" fill-opacity="0.7"/>
<path d="M202.24 293.419L208.629 242.467C208.629 242.467 207.429 226.085 205.83 214.583C205.469 212.004 208.168 204.768 208.168 204.768C203.573 197.5 199.548 191.578 199.548 191.578C199.548 191.578 206.5 183.034 206.891 182.06C209.091 176.303 216.776 177.377 216.776 177.377C217.35 176.821 218.068 176.436 218.849 176.265C222.502 175.348 232.886 182.629 238.555 182.686C244.224 182.743 272.051 175.247 272.051 175.247L274.882 176.265C274.882 176.265 278.718 175.81 281.714 181.359C283.155 184.019 286.549 199.282 286.549 199.282L282.087 202.31C280.925 209.633 278.899 216.793 276.051 223.64C269.049 240.072 263.051 248.25 263.051 248.25L267.715 265.737" stroke="#263238" stroke-linecap="round" stroke-linejoin="round"/>
<path d="M264.397 193.247C264.397 193.247 256.478 203.504 256.674 205.4C256.87 207.296 260.536 209.249 260.536 209.249" stroke="#263238" stroke-linecap="round" stroke-linejoin="round"/>
<path d="M254.19 197.361C254.573 200.025 254.794 202.71 254.854 205.4C254.854 208.914 264.397 214.747 264.397 214.747" stroke="#263238" stroke-linecap="round" stroke-linejoin="round"/>
<path d="M208.137 204.768C208.137 204.768 207.473 191.243 209.578 188.911" stroke="#263238" stroke-linecap="round" stroke-linejoin="round"/>
<path d="M205.798 193.91C205.798 193.91 206.885 200.913 208.035 202.246" stroke="#263238" stroke-linecap="round" stroke-linejoin="round"/>
<path d="M241.354 199.282C241.354 199.282 227.684 208.08 215.019 209.249" stroke="#263238" stroke-linecap="round" stroke-linejoin="round"/>
<path d="M215.019 237.752C215.019 237.752 230.351 256.251 240.356 258.754" stroke="#263238" stroke-linecap="round" stroke-linejoin="round"/>
<path d="M263.026 248.25C263.026 248.25 259.544 245.722 260.536 244.243" stroke="#263238" stroke-linecap="round" stroke-linejoin="round"/>
<path d="M254.19 263.291C254.19 263.291 232.437 275.419 221.326 274.421" stroke="#263238" stroke-linecap="round" stroke-linejoin="round"/>
<path d="M195.819 224.411C192.981 213.983 188.336 210.582 185.271 199.415C184.361 196.11 181.662 186.029 181.662 186.029C181.662 186.029 185.106 175.285 178.224 169.167C178.224 169.167 176.328 169.167 173.098 176.606C171.749 179.855 171.4 183.433 172.094 186.882C172.094 186.882 174.236 199.984 174.704 203.504C175.829 211.992 178.268 226.205 181.656 233.341C185.29 240.969 189.12 242.675 191.989 241.102" fill="white"/>
<path d="M195.819 224.411C192.981 213.983 188.336 210.582 185.271 199.415C184.361 196.11 181.662 186.029 181.662 186.029C181.662 186.029 185.106 175.285 178.224 169.167C178.224 169.167 176.328 169.167 173.098 176.606C171.749 179.855 171.4 183.433 172.094 186.882C172.094 186.882 174.236 199.984 174.704 203.504C175.829 211.992 178.268 226.205 181.656 233.341C185.29 240.969 189.12 242.675 191.989 241.102" stroke="#263238" stroke-linecap="round" stroke-linejoin="round"/>
<path d="M182.863 183.741L190.232 186.175C191.009 186.377 192.539 185.081 192.469 184.279L190.263 158.632C190.221 158.127 190.022 157.648 189.695 157.26C189.367 156.873 188.928 156.597 188.437 156.471L180.303 154.701C179.526 154.505 177.573 155.434 177.642 156.23L181.03 181.58C181.073 182.086 181.273 182.566 181.601 182.953C181.93 183.341 182.371 183.616 182.863 183.741Z" fill="#00A86B"/>
<mask id="mask0_43_5708" style="mask-type:luminance" maskUnits="userSpaceOnUse" x="177" y="154" width="16" height="33">
<path d="M182.863 183.741L190.232 186.175C191.009 186.377 192.539 185.081 192.469 184.279L190.263 158.632C190.221 158.127 190.022 157.648 189.695 157.26C189.367 156.873 188.928 156.597 188.437 156.471L180.303 154.701C179.526 154.505 177.573 155.434 177.642 156.23L181.03 181.58C181.073 182.086 181.273 182.566 181.601 182.953C181.93 183.341 182.371 183.616 182.863 183.741Z" fill="white"/>
</mask>
<g mask="url(#mask0_43_5708)">
<path opacity="0.3" d="M182.863 183.741L190.232 186.175C191.009 186.377 192.539 185.081 192.469 184.279L190.263 158.632C190.221 158.127 190.022 157.648 189.695 157.26C189.367 156.873 188.928 156.597 188.437 156.471L180.303 154.701C179.526 154.505 177.573 155.434 177.642 156.23L181.03 181.58C181.073 182.086 181.273 182.566 181.601 182.953C181.93 183.341 182.371 183.616 182.863 183.741Z" fill="black" fill-opacity="0.7"/>
</g>
<path d="M182.863 183.741L190.232 186.175C191.009 186.377 192.539 185.081 192.469 184.279L190.263 158.632C190.221 158.127 190.022 157.648 189.695 157.26C189.367 156.873 188.928 156.597 188.437 156.471L180.303 154.701C179.526 154.505 177.573 155.434 177.642 156.23L181.03 181.58C181.073 182.086 181.273 182.566 181.601 182.953C181.93 183.341 182.371 183.616 182.863 183.741Z" stroke="#263238" stroke-linecap="round" stroke-linejoin="round"/>
<path d="M181.649 184.373L189.783 186.137C189.963 186.184 190.151 186.188 190.332 186.147C190.513 186.106 190.682 186.022 190.824 185.903C190.966 185.783 191.077 185.631 191.148 185.46C191.218 185.288 191.247 185.102 191.23 184.917L189.056 159.264C189.013 158.758 188.813 158.278 188.485 157.891C188.157 157.504 187.716 157.228 187.224 157.103L179.096 155.333C178.916 155.287 178.728 155.285 178.547 155.326C178.366 155.368 178.197 155.452 178.056 155.572C177.914 155.692 177.803 155.845 177.732 156.016C177.662 156.188 177.633 156.374 177.649 156.559L179.823 182.212C179.866 182.717 180.065 183.196 180.392 183.584C180.719 183.971 181.158 184.247 181.649 184.373Z" fill="#00A86B" stroke="#263238" stroke-linecap="round" stroke-linejoin="round"/>
<path opacity="0.3" d="M186.162 164.01L187.47 164.295C187.499 164.302 187.529 164.302 187.558 164.295C187.587 164.288 187.614 164.275 187.636 164.256C187.659 164.237 187.677 164.213 187.689 164.185C187.701 164.158 187.706 164.129 187.704 164.099L187.356 159.959C187.349 159.878 187.316 159.801 187.263 159.739C187.209 159.676 187.138 159.632 187.059 159.612L185.745 159.327C185.716 159.32 185.686 159.32 185.657 159.327C185.628 159.334 185.601 159.347 185.578 159.366C185.556 159.385 185.538 159.409 185.526 159.437C185.514 159.464 185.509 159.494 185.511 159.523L185.865 163.663C185.873 163.744 185.905 163.821 185.958 163.884C186.012 163.946 186.083 163.99 186.162 164.01Z" fill="black" fill-opacity="0.7"/>
<path d="M174.723 176.865C174.407 173.269 177.68 167.872 179.861 167.872C182.041 167.872 188.665 172.978 188.665 172.978C191.231 174.836 189.96 176.606 189.96 176.606C191.471 177.605 191.856 178.957 191.193 179.583C190.529 180.208 188.311 179.583 188.311 179.583C188.311 179.583 190.51 181.188 189.96 181.978C188.665 183.842 184.405 181.384 184.405 181.384C184.405 181.384 186.876 183.015 186.737 183.324C185.802 185.359 181.763 182.989 181.763 182.989L178.925 184.443C178.928 184.778 178.861 185.109 178.73 185.417C178.598 185.724 178.404 186.001 178.16 186.231C177.916 186.46 177.627 186.636 177.312 186.748C176.997 186.86 176.662 186.906 176.328 186.882" fill="white"/>
<path d="M174.723 176.865C174.407 173.269 177.68 167.872 179.861 167.872C182.041 167.872 188.665 172.978 188.665 172.978C191.231 174.836 189.96 176.606 189.96 176.606C191.471 177.605 191.856 178.957 191.193 179.583C190.529 180.208 188.311 179.583 188.311 179.583C188.311 179.583 190.51 181.188 189.96 181.978C188.665 183.842 184.405 181.384 184.405 181.384C184.405 181.384 186.876 183.015 186.737 183.324C185.802 185.359 181.763 182.989 181.763 182.989L178.925 184.443C178.928 184.778 178.861 185.109 178.73 185.417C178.598 185.724 178.404 186.001 178.16 186.231C177.916 186.46 177.627 186.636 177.312 186.748C176.997 186.86 176.662 186.906 176.328 186.882" stroke="#263238" stroke-linecap="round" stroke-linejoin="round"/>
<path d="M189.96 176.606C189.96 176.606 183.754 172.599 182.97 172.492C182.187 172.384 179.311 171.759 179.311 171.759" fill="white"/>
<path d="M189.96 176.606C189.96 176.606 183.754 172.599 182.97 172.492C182.187 172.384 179.311 171.759 179.311 171.759" stroke="#263238" stroke-linecap="round" stroke-linejoin="round"/>
<path d="M188.336 179.583C188.336 179.583 183.28 176.979 182.37 176.979C180.975 176.826 179.59 176.588 178.224 176.265" fill="white"/>
<path d="M188.336 179.583C188.336 179.583 183.28 176.979 182.37 176.979C180.975 176.826 179.59 176.588 178.224 176.265" stroke="#263238" stroke-linecap="round" stroke-linejoin="round"/>
<path d="M184.405 181.384C183.816 180.965 183.192 180.597 182.541 180.284C181.337 180.198 180.129 180.198 178.926 180.284" fill="white"/>
<path d="M184.405 181.384C183.816 180.965 183.192 180.597 182.541 180.284C181.337 180.198 180.129 180.198 178.926 180.284" stroke="#263238" stroke-linecap="round" stroke-linejoin="round"/>
<path d="M247.605 221.75C247.605 221.75 251.523 219.544 255.025 211.316C258.526 203.087 259.525 203.915 259.525 203.915C259.525 203.915 267.191 200.155 270.856 199.282C274.522 198.41 281.189 199.282 281.189 199.282C281.189 199.282 275.501 215.784 269.693 226.515C263.885 237.247 259.209 243.579 256.105 244.211C253.002 244.843 247.605 221.75 247.605 221.75Z" fill="white" stroke="#263238" stroke-linecap="round" stroke-linejoin="round"/>
<path d="M270.357 176.328C270.357 176.328 242.46 191.186 234.396 191.104C226.332 191.022 221.307 177.2 221.307 177.2C221.307 177.2 236.223 176.865 234.491 169.736C234.491 169.616 234.434 169.483 234.396 169.357C233.682 166.867 230.945 162.506 229.928 160.939C229.688 160.566 229.542 160.351 229.542 160.351L251.618 143.868C250.354 160.534 252.794 167.84 254.291 170.583C256.864 175.279 270.357 176.328 270.357 176.328Z" fill="white" stroke="#263238" stroke-linecap="round" stroke-linejoin="round"/>
<path d="M245.355 153.209C245.355 153.209 240.754 166.216 234.472 169.736C234.472 169.616 234.415 169.483 234.377 169.357C233.663 166.867 230.926 162.506 229.909 160.939L245.355 153.209Z" fill="#263238"/>
<path d="M235.793 187.142C235.793 187.142 237.354 184.127 239.686 183.773C242.018 183.419 248.439 183.356 260.315 181.384" stroke="#263238" stroke-linecap="round" stroke-linejoin="round"/>
<path d="M232.209 187.142C232.209 187.142 231.211 184.797 230.945 183.773C230.68 182.749 224.474 181.46 222.413 179.766" stroke="#263238" stroke-linecap="round" stroke-linejoin="round"/>
<path d="M215.329 116.433C211.24 120.889 210.02 135.431 212.061 141.713C212.061 141.713 222.306 143.18 224.701 141.334C227.097 139.489 215.329 116.433 215.329 116.433Z" fill="#263238"/>
<path d="M253.855 145.802C254.841 141.448 260.068 120.339 247.763 110.998C235.458 101.657 220.448 114.114 218.343 117.053C209.855 128.909 213.616 138.332 215.183 144.014C216.751 149.696 215.98 156.578 223.917 166.039C227.254 170.014 233.258 167.897 239.174 163.783C242.719 161.318 247.712 156.982 247.839 152.805" fill="white"/>
<path d="M253.855 145.802C254.841 141.448 260.068 120.339 247.763 110.998C235.458 101.657 220.448 114.114 218.343 117.053C209.855 128.909 213.616 138.332 215.183 144.014C216.751 149.696 215.98 156.578 223.917 166.039C227.254 170.014 233.258 167.897 239.174 163.783C242.719 161.318 247.712 156.982 247.839 152.805" stroke="#263238" stroke-linecap="round" stroke-linejoin="round"/>
<path d="M225.725 136.55C225.725 136.55 232.393 135.362 236.166 137.726" stroke="#263238" stroke-linecap="round" stroke-linejoin="round"/>
<path d="M232.778 142.996C232.942 144.02 232.582 144.93 231.969 145.031C231.356 145.132 230.705 144.399 230.553 143.363C230.402 142.326 230.749 141.429 231.362 141.328C231.975 141.227 232.608 141.972 232.778 142.996Z" fill="#263238"/>
<path d="M219.456 142.996C219.62 144.02 219.26 144.93 218.647 145.031C218.034 145.132 217.383 144.399 217.231 143.363C217.079 142.326 217.427 141.429 218.04 141.328C218.653 141.227 219.304 141.972 219.456 142.996Z" fill="#263238"/>
<path d="M218.343 136.613C218.343 136.613 214.665 135.299 213.477 136.986" stroke="#263238" stroke-linecap="round" stroke-linejoin="round"/>
<path d="M220.663 142.491C221.042 143.932 218.135 150.429 218.343 150.991C218.552 151.554 219.98 152.552 222.54 152.805" stroke="#263238" stroke-linecap="round" stroke-linejoin="round"/>
<path d="M223.804 157.273C223.804 157.273 229.138 157.273 232.21 155.105" stroke="#263238" stroke-linecap="round" stroke-linejoin="round"/>
<path d="M216.852 113.299C216.852 113.299 211.227 118.525 214.855 128.802C215.656 130.897 216.839 132.826 218.343 134.49C222.104 132.372 223.981 135.678 226.231 134.597C228.481 133.516 232.064 135.811 234.396 135.355C235.543 135.1 236.733 135.111 237.875 135.388C239.017 135.666 240.08 136.201 240.982 136.954C242.732 138.522 242.732 141.954 245.355 143.609C245.355 143.609 246.885 138.244 250.108 139.021C253.331 139.798 250.481 149.133 250.481 149.133C254.52 144.209 257.038 138.217 257.73 131.886C258.994 121.142 254.747 111.757 247.618 109.766C247.618 109.766 245.241 105.14 237.114 105.885C228.986 106.631 221.617 106.176 216.852 113.299Z" fill="#263238"/>
<path d="M247.605 140.43C247.605 140.43 250.607 133.074 254.98 136.126C259.354 139.179 254.108 148.552 251.978 150.928C249.849 153.304 249.229 150.681 248.983 149.929" fill="white"/>
<path d="M247.605 140.43C247.605 140.43 250.607 133.074 254.98 136.126C259.354 139.179 254.108 148.552 251.978 150.928C249.849 153.304 249.229 150.681 248.983 149.929" stroke="#263238" stroke-linecap="round" stroke-linejoin="round"/>
<g opacity="0.2">
<path d="M218.824 118.645C218.95 116.804 219.501 115.017 220.435 113.425" stroke="white" stroke-linecap="round" stroke-linejoin="round"/>
<path d="M223.804 131.304C221.099 128.283 219.039 124.22 218.817 120.137" stroke="white" stroke-linecap="round" stroke-linejoin="round"/>
<path d="M229.542 126.223C231.069 128.721 233.224 130.774 235.793 132.177" stroke="white" stroke-linecap="round" stroke-linejoin="round"/>
<path d="M228.007 113.425C225.934 116.756 227.128 121.534 228.746 124.801" stroke="white" stroke-linecap="round" stroke-linejoin="round"/>
<path d="M249.071 132.366C250.638 133.179 252.283 133.829 253.982 134.306" stroke="white" stroke-linecap="round" stroke-linejoin="round"/>
<path d="M234.396 117.805C237.556 123.507 242.159 128.278 247.744 131.639" stroke="white" stroke-linecap="round" stroke-linejoin="round"/>
</g>
<path d="M202.954 172.625C202.954 172.625 201.058 172.624 200.888 174.009C200.717 175.393 203.542 177.2 203.542 177.2" fill="white"/>
<path d="M202.954 172.625C202.954 172.625 201.058 172.624 200.888 174.009C200.717 175.393 203.542 177.2 203.542 177.2" stroke="#263238" stroke-linecap="round" stroke-linejoin="round"/>
<path d="M256.213 222.9C251.94 216.384 245.911 212.308 240.52 205.078C236.058 199.081 231.941 192.836 228.19 186.371L222.47 175.627C222.47 175.627 215.468 167.183 212.636 166.147C209.805 165.11 194.308 164.617 194.308 164.617C194.308 164.617 193.676 166.298 196.072 167.145C198.467 167.992 205.804 168.681 205.804 168.681C205.804 168.681 203.643 169.61 203.144 170.375C202.644 171.139 203.144 177.422 204.142 178.698C205.141 179.975 208.977 181.138 208.977 181.138C208.977 181.138 209.483 185.562 213.23 187.755C216.978 189.948 218.811 189.973 218.811 189.973C218.811 189.973 222.338 195.964 223.81 200.243C226.97 209.363 234.94 230.099 240.697 237.575C247.51 246.423 256.339 246.765 259.531 241.133" fill="white"/>
<path d="M256.213 222.9C251.94 216.384 245.911 212.308 240.52 205.078C236.058 199.081 231.941 192.836 228.19 186.371L222.47 175.627C222.47 175.627 215.468 167.183 212.636 166.147C209.805 165.11 194.308 164.617 194.308 164.617C194.308 164.617 193.676 166.298 196.072 167.145C198.467 167.992 205.804 168.681 205.804 168.681C205.804 168.681 203.643 169.61 203.144 170.375C202.644 171.139 203.144 177.422 204.142 178.698C205.141 179.975 208.977 181.138 208.977 181.138C208.977 181.138 209.483 185.562 213.23 187.755C216.978 189.948 218.811 189.973 218.811 189.973C218.811 189.973 222.338 195.964 223.81 200.243C226.97 209.363 234.94 230.099 240.697 237.575C247.51 246.423 256.339 246.765 259.531 241.133" stroke="#263238" stroke-linecap="round" stroke-linejoin="round"/>
<path d="M212.352 172.018C212.352 172.018 206.917 172.65 206.228 173.143C205.539 173.636 205.868 177.523 206.228 178.881C206.289 179.235 206.427 179.572 206.633 179.866C206.838 180.161 207.105 180.407 207.416 180.588" stroke="#263238" stroke-linecap="round" stroke-linejoin="round"/>
<path d="M210.108 168.807C210.108 168.807 204.762 170.141 204.42 170.83C203.923 172.71 203.839 174.677 204.174 176.593C204.61 178.704 204.736 179.368 205.552 179.753" stroke="#263238" stroke-linecap="round" stroke-linejoin="round"/>
<path d="M205.798 168.687C206.559 168.369 207.34 168.103 208.136 167.891" stroke="#263238" stroke-linecap="round" stroke-linejoin="round"/>
<path d="M209.059 176.328C209.516 176.85 210.078 177.269 210.709 177.558C211.34 177.847 212.025 177.998 212.719 178.003C212.719 178.003 211.549 182.503 213.635 185.423" stroke="#263238" stroke-linecap="round" stroke-linejoin="round"/>
<path d="M210.108 177.2C210.108 177.2 208.901 178.18 209.059 178.704" stroke="#263238" stroke-linecap="round" stroke-linejoin="round"/>
<path d="M259.524 203.915C259.524 203.915 270.268 199.213 271.823 198.897C273.378 198.581 285.026 199.156 285.026 199.156C283.584 200.486 281.923 201.555 280.115 202.316C280.115 202.316 279.856 200.173 276.955 199.927C274.054 199.681 259.524 203.915 259.524 203.915Z" fill="#263238"/>
</svg>
